<svg xmlns="http://www.w3.org/2000/svg" width="98" height="56" viewBox="0 0 98 56" fill="none"><g clip-path="url(#clip0_4959_251)"><path fill-rule="evenodd" clip-rule="evenodd" d="M22.2976 38.0411V38.116C22.2928 38.343 22.2771 38.5647 22.2511 38.7809C22.2258 38.9989 22.1877 39.2163 22.1394 39.4326C21.9491 40.2739 21.591 41.0807 21.0674 41.8538C21.1272 41.8097 21.1876 41.7656 21.2462 41.7197C21.4871 41.5361 21.7221 41.3471 21.9437 41.1478L22.0283 41.0699L22.1098 40.992L22.1901 40.914L22.2668 40.8367L22.3423 40.7564L22.4178 40.6749L22.4921 40.5915L22.5615 40.5094L22.628 40.4279L22.6938 40.3421L22.7572 40.2569H22.756L22.8176 40.17L22.8744 40.0818L22.9318 39.9882L22.9849 39.897L23.032 39.8082V39.8076L23.0797 39.7134L23.1232 39.618L23.1655 39.5165H23.1667L23.2023 39.4223L23.2362 39.3208L23.2682 39.2133H23.2694L23.2953 39.1125L23.3213 39.0019L23.3412 38.8969H23.34L23.3588 38.7779L23.372 38.6631L23.3829 38.5436L23.3896 38.4276L23.392 38.3128V38.1987L23.3884 38.0827L23.3829 37.9668H23.3817L23.372 37.8466L23.3612 37.7337L23.3461 37.6147H23.3473L23.331 37.4981L23.3129 37.3834L23.2917 37.2632L23.2706 37.146L23.247 37.0264L23.2235 36.9093H23.2223L23.1975 36.7897L23.1715 36.6713L23.1444 36.5511L23.116 36.4309L23.0888 36.3102L23.0604 36.19L23.0332 36.068L23.0061 35.9472L23.0054 35.946L22.9535 35.702L22.9523 35.7014L22.9287 35.5776L22.9052 35.4538V35.4525L22.8835 35.3281L22.8623 35.2031V35.2013L22.8436 35.0775V35.0745L22.8339 34.9972L22.8327 34.9954L22.8249 34.9162V34.915L22.8164 34.8353L22.8152 34.8329L22.808 34.752V34.7496L22.8025 34.6686V34.6662L22.7977 34.5829L22.7941 34.4983V34.4959L22.7917 34.4126V34.4107L22.7904 34.3256L22.7892 34.3244V34.2398L22.7904 34.2374L22.7929 34.1516V34.1498L22.7953 34.0653V34.0629L22.7989 33.9771V33.9741L22.8049 33.8889V33.8865L22.8116 33.8008L22.8128 33.7983L22.8212 33.7126V33.7096L22.8315 33.6238V33.622L22.8436 33.5368L22.8448 33.5344L22.8575 33.4486V33.4468L22.8732 33.3629L22.8744 33.3581L22.8919 33.2747V33.2723L22.9106 33.189L22.9118 33.1871L22.9318 33.1044L22.933 33.1002L22.9559 33.018L22.9565 33.0156L22.9807 32.9353L22.9825 32.9317L23.0085 32.8507L23.0097 32.8483L23.0344 32.7795L22.9318 32.8L22.8804 32.8109L22.8261 32.8242L22.7741 32.8356L22.721 32.8507V32.8495L22.6715 32.8628L22.6207 32.8779L22.5688 32.8936L22.5205 32.9099L22.4697 32.928L22.419 32.9456L22.3695 32.9637V32.9631L22.3224 32.9824L22.2717 33.0041L22.2245 33.0247L22.1726 33.0476L22.1243 33.0706L22.0754 33.0947L22.0271 33.1207L21.9763 33.1473L21.9244 33.1769L21.8737 33.2059L21.8235 33.2367L21.7734 33.2663L21.7124 33.3067L21.658 33.3442L21.6037 33.384L21.5493 33.4257L21.501 33.465L21.4503 33.5103L21.4044 33.5507L21.3573 33.5954H21.3585L21.309 33.6437L21.2643 33.6902L21.2172 33.7404L21.1688 33.7923L21.1308 33.8352C21.5191 34.5563 21.809 35.2605 22.0023 35.9478C22.2052 36.6629 22.3031 37.361 22.2976 38.0411Z" fill="white"></path><path fill-rule="evenodd" clip-rule="evenodd" d="M17.4118 28.0566L17.5628 25.0405C16.9033 25.1317 16.2625 25.2851 15.6495 25.4941C14.9887 25.7194 14.3588 26.0111 13.767 26.3583C10.72 28.149 8.66722 31.4617 8.66722 35.2406L8.66602 35.2412C8.66602 36.7849 9.00966 38.2507 9.62388 39.5685C9.77366 39.8916 9.94034 40.205 10.1209 40.5052C11.0419 42.0447 12.3537 43.3256 13.9192 44.2092C14.1148 44.1428 14.3008 44.0721 14.479 43.996C14.6741 43.9151 14.8589 43.8275 15.0334 43.7339V43.7333L15.0346 43.7327C15.1023 43.6971 15.1693 43.659 15.2364 43.6192C15.3016 43.5799 15.3662 43.5388 15.4278 43.4984C15.6869 43.325 15.917 43.133 16.1097 42.9252C15.6555 42.7748 15.1929 42.6094 14.755 42.4125C14.2525 42.186 13.7821 41.9196 13.3961 41.5923L13.3949 41.5917C13.3255 41.5319 13.2572 41.4703 13.192 41.4063C13.125 41.3411 13.0615 41.2752 13.0036 41.2094C12.6919 40.8603 12.4516 40.4581 12.3018 40.0039C12.1955 39.679 12.1375 39.3462 12.1103 39.0098C12.0844 38.6789 12.088 38.3437 12.1049 38.0097L12.1061 37.9982C12.1176 37.7536 12.1351 37.5223 12.1532 37.2904C12.2064 36.6007 12.2583 35.9092 12.1556 35.2273L12.1544 35.2243C12.1363 35.1065 12.114 34.9893 12.0856 34.8734C12.059 34.7574 12.027 34.6421 11.9913 34.5279C11.8077 33.9421 11.5257 33.4034 11.2364 33.0072L11.0752 32.7837L11.35 32.8L11.359 32.8012C11.5305 32.8109 11.7027 32.8272 11.8748 32.8496C12.0481 32.8731 12.2178 32.9009 12.3845 32.9359H12.3857C13.1286 33.0936 13.8219 33.3841 14.3437 33.8576C14.3329 33.7615 14.3214 33.6649 14.3057 33.5677C14.2211 33.0265 14.043 32.463 13.7204 32.0511L13.5393 31.8029L13.8437 31.8422L13.8491 31.8434C13.9898 31.8639 14.1015 31.8784 14.2139 31.8953C14.7822 31.9738 15.3487 32.053 15.8898 32.2722C16.1719 32.3863 16.4255 32.5265 16.6593 32.6913C16.835 32.8163 17.0011 32.9559 17.1593 33.1111L17.4118 28.0566Z" fill="white"></path><path fill-rule="evenodd" clip-rule="evenodd" d="M23.3872 45.6303L23.787 44.9243L23.7357 44.9086H23.7345L23.6802 44.8904L23.627 44.8729H23.6246L23.5702 44.8554L23.5159 44.8361L23.4627 44.8174H23.4615L23.409 44.7992H23.4078L23.3546 44.7799L23.3522 44.7793L23.2991 44.7594L23.2459 44.7388L23.194 44.7201L23.1916 44.7195L23.1396 44.6984V44.6978L23.0877 44.6772L23.0853 44.6766L23.0333 44.6555L22.9808 44.6338L22.9796 44.6332L22.9276 44.6102L22.8745 44.5873H22.8733L22.8213 44.5631L22.8201 44.5625L22.7682 44.5389H22.767L22.715 44.5148L22.7138 44.5136L22.6607 44.4882H22.6595L22.6063 44.4628L22.5532 44.4363L22.5526 44.4357L22.4994 44.4091H22.4982L22.4451 44.3813L22.3907 44.3523L22.3895 44.3511L22.2796 44.2913L22.2766 44.2895L22.1703 44.2273L22.1667 44.2261L22.0628 44.1609L22.0604 44.1591L21.9589 44.092L21.9553 44.0896L21.8562 44.0201L21.8538 44.0183L21.7572 43.9465L21.7536 43.9441L21.6593 43.8704L21.6569 43.8673L21.5651 43.7894L21.5627 43.7876L21.4715 43.7079L21.4697 43.7055L21.3821 43.6234L21.3785 43.6221L21.294 43.5364L21.2903 43.5346L21.2064 43.4482L21.2052 43.4452L21.1212 43.3546L21.1188 43.3534L21.0391 43.2598L21.0379 43.258L20.9974 43.209L20.9727 43.2157L20.8869 43.2435L20.7993 43.2719L20.7166 43.3033L20.6344 43.3353L20.5602 43.3661V43.3673L20.4847 43.4011L20.4182 43.4337L20.35 43.4693L20.2829 43.5068L20.2226 43.5418L20.1591 43.5817L20.1 43.6209L20.0444 43.6584L19.9858 43.7007L19.9339 43.7393L19.8783 43.7834L19.8276 43.8239L19.7732 43.868L19.7225 43.912L19.6718 43.9573L19.621 44.0008L19.5703 44.0479L19.5196 44.0932L19.4676 44.1409L19.4157 44.1886L19.3637 44.2358L19.3625 44.237L19.3094 44.2847L19.2568 44.333L19.2013 44.3819V44.3831L19.037 44.5232L18.9452 44.603L18.8588 44.516L18.7151 44.3686L18.6704 44.3227L18.6245 44.2774L18.5792 44.2321L18.5345 44.1862L18.4874 44.1415L18.4415 44.0962L18.392 44.0509L18.3932 44.0503L18.3461 44.0075L18.2954 43.9628L18.2434 43.9181L18.1927 43.8752L18.1407 43.8341L18.0864 43.7912L18.0357 43.7538L18.0332 43.7514L18.0284 43.7484L18.0073 43.7315L17.9813 43.7145C17.9354 43.6813 17.8919 43.6523 17.8551 43.6282L17.7905 43.5871L17.7276 43.5503L17.6582 43.511L17.5924 43.476L17.5193 43.4379L17.448 43.4035L17.3725 43.3703L17.2928 43.3371L17.2076 43.3033L17.1225 43.2725L17.0379 43.2441L16.9431 43.2157V43.2145L16.9256 43.209L16.8845 43.258L16.8833 43.2592L16.803 43.3528L16.8006 43.3546L16.7166 43.4452L16.7148 43.4482L16.6321 43.5346L16.6297 43.5364L16.5433 43.6221L16.5409 43.6246L16.4527 43.7055L16.4503 43.7085L16.3597 43.7876L16.3573 43.7894L16.2649 43.8673L16.2625 43.8704L16.1683 43.9441L16.1646 43.9465L16.068 44.0189L16.0644 44.0208L15.9653 44.0896L15.9629 44.092L15.8627 44.1591L15.8596 44.1609L15.7558 44.2261L15.7521 44.2285L15.6458 44.2901L15.6422 44.2919L15.5323 44.3511L15.5317 44.3523L15.4785 44.3807L15.4773 44.3813L15.423 44.4091H15.4218L15.3686 44.4363L15.3143 44.4628L15.2623 44.4882H15.2611L15.2092 44.5136L15.2068 44.5148L15.1548 44.5383V44.5389L15.1023 44.5625L15.1011 44.5631L15.0479 44.5873L14.996 44.6102H14.9948L14.9428 44.6332L14.9416 44.6338L14.8885 44.6555L14.8353 44.6766L14.8341 44.6772L14.7822 44.6978V44.6984L14.7291 44.7195L14.7272 44.7201L14.6765 44.7388L14.6246 44.7594L14.6222 44.76L14.569 44.7799H14.5678L14.5134 44.7992L14.4603 44.8174H14.4591L14.4059 44.8361L14.3528 44.8554H14.3504L14.2966 44.8729H14.2954L14.2423 44.8904L14.1879 44.9086H14.1867L14.1348 44.9243L14.5346 45.6303H23.3872Z" fill="white"></path><path fill-rule="evenodd" clip-rule="evenodd" d="M16.7919 33.834L16.7533 33.7911L16.7086 33.7416L16.6603 33.6908L16.6132 33.6425L16.5679 33.5978L16.5184 33.5507L16.4737 33.5103L16.4229 33.4668L16.3734 33.4257L16.3191 33.3834L16.2659 33.3436L16.2115 33.3067L16.153 33.2681L16.0998 33.2367H16.101L16.0491 33.2059L15.9996 33.1769L15.9476 33.1473L15.8969 33.1207L15.8486 33.0947L15.7991 33.0706L15.7483 33.047L15.7012 33.0253L15.6529 33.0041L15.601 32.983L15.5551 32.9637L15.5043 32.945L15.4536 32.9268L15.4041 32.9099L15.3558 32.8936L15.3026 32.8785L15.3038 32.8779L15.2543 32.8634L15.2036 32.8495V32.8507L15.1492 32.8362L15.0985 32.8236L15.0441 32.8109L14.9378 32.7891L14.8895 32.7795L14.9143 32.8477L14.9155 32.8513L14.9414 32.9323L14.9427 32.9347L14.9674 33.0156V33.018L14.991 33.1002V33.1038L15.0121 33.1871V33.1896L15.0308 33.2729L15.032 33.2759L15.0489 33.3593V33.3617L15.0653 33.4462V33.4493L15.0791 33.5344V33.5368L15.0924 33.622V33.625L15.1021 33.7102V33.712L15.1112 33.7983V33.8001L15.1184 33.8865V33.8889L15.1244 33.9741V33.9771L15.1293 34.0629V34.0653L15.1311 34.1498V34.1516L15.1323 34.238L15.1335 34.2398V34.3244L15.1323 34.325V34.4138L15.1293 34.4965V34.4977L15.1269 34.5811V34.5829L15.1208 34.6662V34.6686L15.1148 34.7496V34.752L15.1075 34.8335V34.8353L15.0997 34.915V34.9168L15.09 34.9966L15.0888 34.9984L15.0791 35.0757V35.0775L15.0616 35.2013L15.0604 35.2031L15.0405 35.3275V35.3293L15.0194 35.4525L15.0181 35.4538L14.9946 35.577L14.9698 35.7008V35.702L14.9451 35.8234V35.824L14.9179 35.9466L14.8907 36.068L14.8623 36.19L14.8352 36.3108L14.8068 36.4315L14.7524 36.6707L14.727 36.7891L14.7011 36.9087L14.6763 37.0264L14.6534 37.146H14.6522L14.631 37.2626L14.6123 37.3797L14.5936 37.4981H14.5924L14.5767 37.6141L14.5628 37.7337L14.5507 37.8472L14.5416 37.9668L14.5356 38.0833L14.5308 38.1987V38.3128L14.5344 38.4276L14.5404 38.5442H14.5416L14.5507 38.6625L14.5652 38.7773L14.5827 38.8969L14.6026 39.005L14.6274 39.1113L14.6546 39.2133L14.6866 39.3214L14.7222 39.4223L14.7572 39.5171L14.7989 39.6168L14.8436 39.7134L14.8883 39.8046L14.9402 39.8994L14.9922 39.99L15.0465 40.0782L15.1063 40.17H15.1051L15.1643 40.2545H15.1655L15.2301 40.3421L15.2954 40.4279L15.3612 40.5094L15.4319 40.5909L15.5067 40.6749L15.581 40.7564L15.6577 40.8367L15.7338 40.914L15.8129 40.992L15.8969 41.0711C16.1964 41.3489 16.5196 41.6031 16.8523 41.8496C16.7237 41.6593 16.6047 41.4679 16.496 41.274C15.9253 40.2527 15.633 39.1753 15.6233 38.0411C15.6185 37.361 15.7163 36.6629 15.918 35.9484C16.1125 35.2617 16.403 34.5563 16.7919 33.834Z" fill="white"></path><path fill-rule="evenodd" clip-rule="evenodd" d="M18.0713 31.8543C18.2561 31.6066 18.453 31.3566 18.6607 31.1029L18.6632 31.1005L18.8625 30.8698L18.9615 30.7563L19.0593 30.8698L19.2586 31.1005L19.2635 31.1054V31.1066C19.3106 31.1633 19.3523 31.2153 19.3873 31.257C19.429 31.3095 19.47 31.3608 19.5099 31.4104C19.621 31.5517 19.7321 31.6936 19.8378 31.8349L19.3263 22.6936L18.9615 22.1796L18.5949 22.699L18.0713 31.8543Z" fill="white"></path><path fill-rule="evenodd" clip-rule="evenodd" d="M15.8416 42.0018L15.9316 42.0344L15.9394 42.0368L15.8428 41.9643L15.8416 41.9637L15.7075 41.8598L15.7063 41.858L15.5741 41.7523L15.5716 41.7505L15.4418 41.6424L15.4394 41.6412L15.3119 41.5307L15.3095 41.5283L15.1857 41.4159L15.1821 41.4135L15.0619 41.2964L15.0595 41.2945L14.9417 41.1756L14.9393 41.1725L14.8252 41.0493L14.8215 41.0457L14.7116 40.9195L14.708 40.9147L14.6041 40.7842L14.6017 40.7806L14.5014 40.6447L14.4972 40.6393L14.4024 40.4979L14.3994 40.4943L14.3106 40.3482L14.3082 40.3433L14.2236 40.1923L14.2212 40.1857L14.1433 40.0299L14.1409 40.0244L14.0702 39.8614L14.0678 39.8559L14.0038 39.6856L14.0002 39.6796L13.9452 39.5038L13.9428 39.499L13.8933 39.316L13.8921 39.3094L13.8492 39.1203L13.848 39.1143L13.8142 38.9174L13.8129 38.9114L13.7882 38.7078L13.787 38.7024L13.7773 38.5925V38.5871L13.7713 38.4753V38.4717L13.7707 38.3569V38.2349L13.7749 38.1178V38.1154L13.7821 37.997V37.9934L13.7906 37.8744L13.7918 37.8708L13.8033 37.75V37.7476L13.8178 37.625V37.6232L13.8341 37.4999V37.4987L13.8516 37.3743V37.3731L13.8715 37.2481V37.2457L13.8933 37.1201L13.9156 36.9944L13.9168 36.9926L13.9404 36.867L13.9639 36.7396V36.7384L13.9899 36.6109L14.0147 36.4847L14.0666 36.2311L14.0938 36.106L14.1185 35.9804L14.1445 35.856L14.1681 35.7328H14.1693L14.1928 35.6114L14.2152 35.4894H14.2164L14.2375 35.3716L14.2574 35.2514L14.2762 35.1373L14.2931 35.0226H14.2943L14.3082 34.9108V34.9066L14.2719 34.8692L14.2091 34.8075L14.1433 34.7429L14.0757 34.6795L14.005 34.6149L13.9368 34.5527L13.8637 34.4887L13.7906 34.4271H13.7894L13.7151 34.3655L13.6432 34.3099L13.5689 34.2525L13.4977 34.2024L13.4331 34.1589L13.3636 34.1148L13.302 34.0792L13.2229 34.0375L13.145 33.9989L13.0628 33.9596L12.9849 33.9252L12.9046 33.892L12.8194 33.86L12.7373 33.8298L12.657 33.8032L12.5718 33.7778L12.4861 33.7549L12.4849 33.7537L12.4988 33.7808L12.5012 33.7851L12.5447 33.8726L12.5863 33.9608L12.5881 33.9638L12.6262 34.052L12.6274 34.0556L12.6648 34.1486L12.6993 34.2392L12.7005 34.2429L12.7313 34.3347L12.7325 34.3377L12.7621 34.4301V34.4325L12.7893 34.5255L12.7899 34.5291L12.8146 34.6221L12.8158 34.6252L12.8388 34.7206V34.7224L12.8599 34.8178L12.8611 34.8208L12.8798 34.9157V34.9175L12.8974 35.0129V35.0165L12.9143 35.1119V35.1138L12.9282 35.2098V35.2122L12.9402 35.3082V35.31L12.9505 35.4055V35.4085L12.9602 35.5045V35.5051L12.968 35.6011V35.6029L12.9741 35.6978V35.6996L12.9789 35.7944V35.7962L12.9825 35.8892V35.8916L12.9849 35.9846V35.9865L12.9861 36.0795V36.1725L12.9849 36.2631V36.2649L12.9825 36.3591L12.9801 36.4545V36.4557L12.9753 36.5499V36.5517L12.9704 36.6454V36.646L12.965 36.7402L12.959 36.8356L12.9529 36.9298L12.9457 37.0246L12.939 37.1183L12.9306 37.2125L12.9233 37.3061L12.9161 37.3991L12.9082 37.4933L12.8937 37.6781L12.8871 37.7711L12.8811 37.8635L12.8762 37.9559L12.8702 38.0471L12.8666 38.1395L12.8635 38.2295L12.8611 38.3213L12.8599 38.4125V38.5001L12.8611 38.5919L12.8623 38.6807L12.8653 38.7707L12.8702 38.8588L12.8774 38.95L12.8859 39.0364L12.8949 39.1258H12.8962L12.907 39.2164L12.9155 39.2731L12.9257 39.3341L12.9354 39.3903L12.9481 39.4483L12.9602 39.5038L12.9716 39.5558L12.9861 39.6107L13 39.6621L13.0157 39.7122L13.032 39.7653L13.0483 39.8137L13.0665 39.8626L13.084 39.9079L13.1027 39.9538L13.1238 40.0039L13.1462 40.0504H13.145L13.1667 40.0945L13.1891 40.138H13.1903L13.2162 40.1851V40.1857L13.2398 40.228L13.2676 40.2745L13.2929 40.3155L13.3219 40.3596L13.3527 40.4055V40.4067L13.3835 40.449L13.4143 40.4907L13.4482 40.5348L13.4826 40.5783L13.52 40.6242L13.5557 40.6658L13.5955 40.7123L13.636 40.757L13.697 40.8235H13.6982L13.7622 40.8875L13.8305 40.9527L13.8945 41.0095H13.8957L13.9627 41.0663L14.0346 41.1218L14.1016 41.1732L14.1028 41.1725L14.1771 41.2257L14.2502 41.274L14.3269 41.3217L14.4036 41.3676L14.4803 41.4129L14.563 41.4576L14.647 41.5011L14.7328 41.5452L14.8191 41.5881L14.8849 41.6195L14.9502 41.6503L15.0233 41.6823L15.0951 41.7137L15.1694 41.7451L15.2485 41.7765L15.3289 41.8085L15.411 41.8411L15.4937 41.8731L15.5789 41.9051L15.6646 41.9384L15.7534 41.9698L15.8416 42.0018Z" fill="white"></path><path fill-rule="evenodd" clip-rule="evenodd" d="M33.0306 32.2951H31.2236L31.1952 32.2015L30.982 31.4743C30.866 31.118 30.7398 30.772 30.5985 30.4349C30.4578 30.0949 30.3044 29.7628 30.1359 29.4336C30.006 29.1902 29.8574 28.9311 29.7101 28.6732L29.6666 28.5959L29.6171 28.509L29.6877 28.4389L30.8896 27.2358C30.6818 26.9224 30.4565 26.6192 30.221 26.3257C29.9613 26.0026 29.6901 25.6922 29.4153 25.392L28.8434 24.8176C28.539 24.5374 28.2274 24.2644 27.9079 24.0053C27.615 23.7692 27.313 23.5427 27.002 23.3343L25.7989 24.5368L25.7276 24.6075L25.6419 24.5579L24.9775 24.1781H24.9787C24.6496 24.0017 24.3192 23.8417 23.9846 23.6949C23.6495 23.5487 23.3064 23.4147 22.9525 23.2927C22.6529 23.1948 22.36 23.1097 22.0689 23.0245L22.0309 23.0136L21.9367 22.9859V21.177C21.3007 21.0399 20.6509 20.9487 19.9962 20.9016C19.7389 20.8823 19.484 20.8708 19.234 20.866C19.1718 20.8648 19.109 20.8648 19.0468 20.8642L19.074 20.9016L20.1707 22.4333L20.1943 22.5003L20.3145 24.1913C21.0543 24.2813 21.7718 24.4462 22.4615 24.6757C23.1826 24.9155 23.8711 25.2271 24.5173 25.6016C27.8451 27.53 30.0912 31.1319 30.0912 35.2406V35.2418C30.0912 37.23 29.5651 39.0992 28.6447 40.7159C28.4949 40.9805 28.3349 41.2378 28.1652 41.4866C27.3076 42.7452 26.1987 43.8202 24.9117 44.6386L24.9069 44.6476L23.917 46.3532L23.8784 46.419H14.0467L14.0086 46.3532L13.0188 44.6476L13.0176 44.6464C12.599 44.3813 12.2004 44.0896 11.823 43.7737C11.428 43.441 11.0529 43.0804 10.7045 42.6957C8.91737 40.7196 7.82665 38.1033 7.82665 35.2406V35.2351H7.82785C7.82785 34.4355 7.91241 33.6552 8.07426 32.9039C8.23552 32.1514 8.47408 31.4266 8.78088 30.7387C10.3403 27.2328 13.6608 24.6733 17.6064 24.1913L17.7265 22.5051L17.7513 22.4393L18.8487 20.9065L18.8553 20.8962L18.8783 20.8642C18.7424 20.8648 18.6053 20.8678 18.47 20.872C17.6335 20.901 16.7995 21.0025 15.9854 21.177V22.9859L15.8912 23.0136L15.8477 23.0257C15.5578 23.1109 15.2673 23.1954 14.9701 23.2927C14.708 23.3827 14.4568 23.4769 14.214 23.5765C13.9712 23.6762 13.7254 23.7849 13.4754 23.9045C13.267 24.0077 13.0683 24.1128 12.875 24.2203V24.2209C12.6733 24.3327 12.4776 24.4444 12.282 24.5573L12.1944 24.6075L12.1237 24.5368L10.9219 23.3343C10.6078 23.5451 10.3071 23.771 10.0147 24.0059C9.69465 24.2644 9.38483 24.5368 9.08044 24.8176L8.50729 25.392C8.23129 25.6922 7.95951 26.0026 7.70042 26.3257C7.46428 26.6192 7.239 26.9224 7.03245 27.2358L8.23552 28.4395L8.30678 28.5102L8.25605 28.5965L8.21921 28.6606C8.07185 28.916 7.92569 29.1721 7.78618 29.4336C7.666 29.6673 7.55185 29.9083 7.44193 30.1553C7.33201 30.4017 7.23176 30.6493 7.13633 30.8994C7.09285 31.0226 7.04816 31.1494 7.00407 31.2811C6.96421 31.4025 6.92314 31.5305 6.88147 31.6646L6.72927 32.2003L6.70089 32.2951H4.89146C4.83952 32.5415 4.79362 32.7855 4.75618 33.0277C4.71451 33.2904 4.68068 33.5568 4.65471 33.8249C4.52366 35.15 4.57922 36.5004 4.81597 37.8037H6.61392L6.63989 37.9015L6.83678 38.6631C6.92435 38.9609 7.02098 39.2556 7.12788 39.5503C7.23659 39.8457 7.35375 40.1337 7.47877 40.4158H7.47998C7.54098 40.5493 7.60137 40.6737 7.65754 40.7884C7.71793 40.911 7.78075 41.0342 7.84537 41.1574L8.11171 41.6454L8.15942 41.7318L8.09057 41.8L6.87905 43.0121C7.08319 43.3322 7.30302 43.6409 7.53373 43.9398C7.78618 44.2665 8.05192 44.583 8.3243 44.891L8.88899 45.4787C9.18673 45.7631 9.49233 46.0428 9.80336 46.3049C10.089 46.5452 10.385 46.7747 10.6942 46.9879L11.89 45.7921L11.9607 45.719L12.0494 45.7722L12.7385 46.1871C12.9928 46.3296 13.2501 46.4643 13.5086 46.5893C13.7683 46.7143 14.0322 46.8321 14.3046 46.9432C14.4779 47.0115 14.6506 47.0755 14.8191 47.1335C14.9913 47.1933 15.1646 47.2519 15.3416 47.3056L15.8912 47.4663L15.9848 47.4928V49.3029C16.6213 49.44 17.2712 49.5318 17.9259 49.5783C18.1831 49.597 18.438 49.6097 18.688 49.6145C18.9417 49.6193 19.1978 49.6169 19.4526 49.6085C20.2897 49.5801 21.1225 49.478 21.9367 49.3035V47.4934L22.0309 47.4669C22.1795 47.424 22.3304 47.3799 22.5195 47.3225C22.6789 47.2748 22.839 47.2247 23.002 47.1715C23.2744 47.0761 23.5456 46.9716 23.8168 46.8575C24.0873 46.7439 24.3512 46.6232 24.6122 46.4951C24.7384 46.4299 24.8658 46.3622 24.9951 46.291C25.1183 46.2221 25.2445 46.1515 25.3737 46.076L25.8732 45.774L25.9602 45.7209L26.032 45.7927L27.2285 46.9879C27.534 46.7759 27.83 46.5458 28.1175 46.3043C28.4339 46.0391 28.7371 45.7619 29.033 45.4787L29.5971 44.8916C29.8707 44.583 30.1359 44.2665 30.3883 43.9398C30.6196 43.6409 30.8401 43.3322 31.043 43.0115L29.8315 41.8L29.7632 41.7318L29.8103 41.646L29.8327 41.6056C29.9788 41.3374 30.1244 41.0705 30.2645 40.7914C30.4016 40.5088 30.5278 40.2249 30.6432 39.9381C30.7585 39.653 30.8648 39.3607 30.9639 39.0605C31.0218 38.8739 31.0774 38.6825 31.1306 38.4862C31.1825 38.2935 31.2332 38.0978 31.2827 37.9022L31.3087 37.8037H33.1049C33.1465 37.5881 33.1791 37.3719 33.2075 37.1575C33.2407 36.9111 33.2667 36.6574 33.2891 36.3989L33.2903 36.3893C33.3054 36.1875 33.3162 35.9901 33.3235 35.7974C33.3301 35.5987 33.3338 35.4012 33.3338 35.2043C33.3313 34.2277 33.2359 33.253 33.0306 32.2951Z" fill="white"></path><path fill-rule="evenodd" clip-rule="evenodd" d="M34.211 35.1246V35.3439L34.2098 35.4459V35.4471L34.2086 35.5504L34.2049 35.6525L34.2031 35.7539L34.1995 35.8566V35.8578L34.1947 35.9593V35.9611L34.1898 36.0614L34.1838 36.1634V36.1646L34.1772 36.2655V36.2667L34.1699 36.3682L34.1627 36.4684L34.1542 36.5699L34.1536 36.5711L34.1439 36.6713V36.6726L34.1343 36.7728L34.124 36.8725V36.8737L34.1131 36.9733V36.9745L34.1017 37.0742L34.0896 37.1738L34.0884 37.1756L34.0757 37.2741L34.0624 37.3731V37.3743L34.0473 37.4722V37.4734L34.0328 37.5724L34.0316 37.573L34.0165 37.6715L34.0002 37.7699L33.9833 37.8684L33.9821 37.8708L33.9646 37.968L33.9483 38.0659V38.0677L33.9277 38.1649L33.909 38.2621L33.8891 38.3588V38.3606L33.8432 38.5762L33.8208 38.6801H31.9879L31.9866 38.6831L31.9583 38.7918V38.793L31.9275 38.8993L31.9263 38.8999L31.8967 39.0068V39.0074L31.8647 39.1143L31.864 39.1149L31.832 39.2218V39.223L31.7976 39.3281V39.3287L31.7632 39.4338V39.4356L31.7282 39.5401L31.6913 39.6464L31.6551 39.7509L31.617 39.8553V39.856L31.5796 39.9586L31.5784 39.9604L31.5391 40.0637V40.0643L31.4993 40.167L31.4981 40.1676L31.4582 40.2691V40.2703L31.4165 40.3723L31.4153 40.3729L31.373 40.4744V40.4762L31.3296 40.5765V40.5771L31.2849 40.6779L31.2396 40.7788L31.2384 40.7794L31.1937 40.879L31.1925 40.8802L31.1466 40.9787V40.9799L31.0994 41.0783L31.0982 41.0796L31.0499 41.178V41.1786L31.0016 41.2764L30.9521 41.3743L30.9509 41.3755L30.9001 41.4721V41.4727L30.8494 41.5687L30.8482 41.57L30.8458 41.5754L32.0809 42.8099L32.1527 42.8829L32.0996 42.9705L31.9263 43.2538L31.925 43.2556L31.8121 43.4368L31.8109 43.438L31.6937 43.6179L31.6925 43.6198L31.5736 43.7967L31.5723 43.7979L31.4509 43.9737L31.4497 43.9749L31.3259 44.1488V44.15L31.1997 44.3221L31.1985 44.3234L31.0686 44.4937V44.4949L30.9376 44.6628L30.9364 44.6652L30.8023 44.8319L30.6664 44.9974L30.6652 44.998L30.5275 45.161V45.1628L30.3868 45.3229L30.3856 45.3241L30.2431 45.4829L30.2418 45.4847L30.0981 45.6406L30.0969 45.643L29.9495 45.7964L29.8004 45.9498L29.7985 45.9516L29.6476 46.1032L29.4942 46.2512L29.493 46.253L29.3371 46.3985L29.3359 46.3991L29.1801 46.5447L29.1789 46.5459L29.0201 46.6866L29.0189 46.6884L28.857 46.8273L28.8558 46.8285L28.6933 46.9662L28.6921 46.968L28.5266 47.1027L28.5254 47.1033L28.3581 47.2368V47.2374L28.1884 47.3685L28.1872 47.3691L28.0169 47.4971L28.0145 47.4983L27.8436 47.6239L27.8412 47.6245L27.6678 47.7477L27.6666 47.7483L27.4909 47.8703L27.4884 47.8721L27.2082 48.0588L27.1194 48.1179L27.0439 48.0425L25.8264 46.8255L25.8209 46.8291L25.8197 46.8297L25.7219 46.8883L25.7207 46.8889L25.6204 46.9463L25.6192 46.9469L25.5202 47.0025L25.519 47.0037L25.4175 47.0598V47.0604L25.3173 47.1154L25.3148 47.1166L25.2134 47.1698L25.1119 47.2241L25.1095 47.2247L25.0056 47.2773L24.9017 47.3292L24.7979 47.3799H24.7967L24.6928 47.4301L24.5883 47.4796H24.5871L24.482 47.5273L24.4808 47.5279L24.3745 47.5744L24.3733 47.575L24.2682 47.6215L24.267 47.6221L24.1613 47.6674L24.1589 47.668L24.0526 47.7121L24.0514 47.7127L23.9439 47.7568L23.9427 47.7574L23.8358 47.7997H23.8334L23.7259 47.8413H23.7247L23.6147 47.8824V47.883L23.5054 47.9223L23.5042 47.9235L23.3943 47.9621H23.3931L23.2832 48.0002L23.2826 48.0008L23.1726 48.037L23.1714 48.0382L23.0603 48.0739L23.0591 48.0745L22.9474 48.1101H22.9462L22.835 48.1433L22.8338 48.1445L22.8139 48.1506V49.9974L22.7136 50.0222L22.4896 50.0766H22.4884L22.3797 50.1019H22.3785L22.2691 50.1267H22.2679L22.1592 50.1514H22.158L22.0487 50.175H22.0475L21.9376 50.1973L21.9364 50.1979L21.8264 50.2203H21.8252L21.7147 50.2402H21.7135L21.6036 50.2602L21.6012 50.2608L21.4907 50.2795H21.4894L21.3783 50.2988H21.3771L21.2654 50.3157L21.2642 50.3163L21.153 50.3326H21.1518L21.0401 50.3489H21.0389L20.9254 50.364L20.8136 50.3773L20.8124 50.3785L20.6989 50.3924H20.6977L20.5847 50.4039H20.5835L20.47 50.416H20.4688L20.3558 50.4262L20.2411 50.4371L20.2387 50.4377L20.1245 50.4468L20.0116 50.4552H20.0092L19.8932 50.4631L19.7791 50.4691H19.7779L19.6631 50.4752H19.6619L19.5465 50.4794H19.5453L19.43 50.4836H19.4288L19.3128 50.4866H19.3116L19.195 50.4884L19.0797 50.4903H18.8435L18.727 50.4884L18.611 50.4866H18.6098L18.4933 50.4836H18.4921L18.3761 50.4794L18.2607 50.4752H18.2595L18.1442 50.4691H18.143L18.0282 50.4631L17.9141 50.4552H17.9117L17.7969 50.4468L17.6828 50.4377L17.6816 50.4371L17.5674 50.4262L17.4539 50.416H17.4515L17.3385 50.4039L17.225 50.3924H17.2226L17.1108 50.3785L17.1096 50.3773L16.9961 50.364L16.8843 50.3489H16.8819L16.7696 50.3326L16.6579 50.3163L16.6567 50.3157L16.5443 50.2988L16.4326 50.2795H16.4314L16.3203 50.2608H16.319L16.2085 50.2408L16.2073 50.2402L16.0962 50.2203L15.9863 50.1979L15.9851 50.1973L15.8758 50.175H15.8745L15.7646 50.1514H15.7622L15.6541 50.1267H15.6529L15.543 50.1019L15.4343 50.0766H15.4319L15.2078 50.0222L15.1087 49.9974V48.1506L15.0888 48.1445L15.0876 48.1433L14.9759 48.1101L14.9747 48.1095L14.8635 48.0739H14.8623L14.7518 48.0382L14.7506 48.037L14.6395 48.0008L14.6383 48.0002L14.5283 47.9621H14.5271L14.4178 47.9235L14.4166 47.9223L14.3079 47.883L14.3067 47.8824L14.1974 47.8413L14.0887 47.7997H14.0875L13.9788 47.7574L13.9775 47.7568L13.8706 47.7127L13.8694 47.7121L13.7631 47.668L13.7619 47.6674L13.6544 47.6221L13.6532 47.6215L13.5481 47.575L13.5469 47.5744L13.4412 47.5279V47.5273L13.3362 47.4796H13.3349L13.2299 47.4301H13.2287L13.1248 47.3799H13.1236L13.0197 47.3292L12.9158 47.2773L12.9152 47.2767L12.8113 47.2241L12.7099 47.1698H12.7087L12.6084 47.1166L12.606 47.1154L12.5045 47.0604V47.0598L12.4031 47.0037L12.4018 47.0025L12.3028 46.9469L12.3016 46.9463L12.2025 46.8889L12.2013 46.8883L12.1023 46.8297L12.1011 46.8291L12.095 46.8255L10.8787 48.0425L10.802 48.1179L10.7138 48.0588L10.433 47.8721L10.4318 47.8703L10.2548 47.7483L10.2536 47.7477L10.0803 47.6245L10.0791 47.6239L9.90694 47.4983L9.90453 47.4971L9.73482 47.3691L9.73361 47.3685L9.56511 47.2374L9.5639 47.2368L9.396 47.1033L9.39479 47.1027L9.22992 46.968L9.22871 46.9662L9.06564 46.8285L9.06504 46.8273L8.90439 46.6884L8.90318 46.6866L8.74374 46.5459L8.74253 46.5447L8.58611 46.4003L8.58369 46.3991L8.42908 46.253L8.42788 46.2512L8.27568 46.1032L8.27447 46.102L8.12349 45.9516L8.12228 45.9498L7.97371 45.797L7.9725 45.7964L7.82513 45.643L7.82393 45.6406L7.68019 45.4847L7.67898 45.4829L7.53705 45.3241L7.53584 45.3229L7.39573 45.1628L7.39452 45.161L7.25622 44.998L7.25501 44.9974L7.12093 44.8325L7.11972 44.8313L6.98625 44.664L6.98504 44.6628L6.85399 44.4955L6.85278 44.4937L6.72474 44.3234L6.72354 44.3221L6.59731 44.15L6.5961 44.1488L6.47229 43.9749L6.47109 43.9737L6.3503 43.7979L6.34909 43.7967L6.23011 43.6198L6.2289 43.6179L6.11234 43.438L6.11113 43.4368L5.99638 43.2556V43.2538L5.82305 42.9705L5.7687 42.8829L5.84117 42.8111L7.07624 41.576L7.07382 41.57L7.07262 41.5687L7.02188 41.4727V41.4721L6.97115 41.3755L6.96995 41.3743L6.92163 41.277L6.87211 41.1798L6.8709 41.1774L6.82379 41.0789L6.77608 40.9799L6.77487 40.9787L6.72897 40.8796L6.68307 40.78V40.7788L6.63838 40.6785L6.63717 40.6779L6.59369 40.5771L6.59248 40.5759L6.5496 40.475L6.50732 40.3729L6.50611 40.3723L6.46505 40.2703L6.46384 40.2697L6.42337 40.1682V40.1664L6.38231 40.0637L6.34365 39.9598L6.3056 39.856L6.3044 39.8553L6.26816 39.7515L6.26695 39.7509L6.23011 39.647L6.19387 39.5407L6.15824 39.4344V39.4338L6.12502 39.3287L6.12382 39.3281L6.08999 39.223V39.2218L6.05799 39.1149L6.05678 39.1143L6.02598 39.0074V39.0068L5.99518 38.9005L5.99457 38.8993L5.96498 38.7924L5.96377 38.7918L5.93538 38.6837L5.93418 38.6801H4.1012L4.08006 38.5762L4.03355 38.3594L4.01362 38.2633L4.01242 38.2621L3.99369 38.1649V38.1637L3.97497 38.0671V38.0659L3.95685 37.968L3.93934 37.8696L3.92303 37.7711L3.90612 37.6727V37.6715L3.88982 37.5724L3.87472 37.474V37.4728L3.86143 37.3743L3.84754 37.2747V37.2735L3.83425 37.175L3.83304 37.1738L3.82157 37.0748L3.80949 36.9745V36.9733L3.79802 36.8737V36.8725L3.78835 36.7734L3.77808 36.6726V36.6707L3.76842 36.5705L3.75997 36.4696V36.4684L3.75212 36.3682V36.367L3.74487 36.2661L3.73762 36.1658V36.1634L3.73279 36.0626V36.0607L3.72735 35.9599V35.9587L3.72252 35.8578L3.7189 35.7551L3.71527 35.6531L3.71407 35.5498L3.71165 35.4471V35.4459L3.71044 35.3439V35.1234L3.71286 35.0081L3.71527 34.8933V34.8921L3.71769 34.7768L3.72252 34.662L3.72615 34.5467V34.5448L3.73158 34.4307L3.73762 34.3172V34.3153L3.74608 34.2006L3.75332 34.0877V34.0864L3.76238 33.9729V33.9717L3.77205 33.86L3.77325 33.8582L3.78352 33.7458V33.7446L3.7956 33.6323V33.6311L3.80828 33.5187L3.82036 33.407L3.82157 33.4052L3.83546 33.2929L3.84995 33.1811L3.86505 33.0694V33.0682L3.88136 32.9583V32.9559L3.89948 32.8447L3.91699 32.7342V32.733L3.93692 32.6225V32.6213L3.95685 32.512L3.97739 32.4014V32.4002L3.99853 32.2903H3.99973L4.02087 32.181L4.04322 32.0723V32.0705L4.06677 31.9612L4.06798 31.9606L4.09274 31.853L4.1175 31.7443V31.7431L4.17186 31.5203L4.19541 31.42H6.04168L6.04289 31.417L6.07308 31.3137V31.3125L6.10509 31.2105V31.2086L6.13831 31.106L6.17213 31.0033V31.0021L6.20776 30.9006L6.24219 30.7992V30.7967L6.27843 30.6959L6.31527 30.595L6.35271 30.4942L6.39076 30.3939L6.39197 30.3933L6.43062 30.2937L6.47109 30.1934L6.51095 30.095L6.51215 30.0937L6.55322 29.9947L6.5961 29.8957H6.59731L6.63959 29.7984L6.68307 29.7L6.72776 29.6033V29.6021L6.77185 29.5061L6.77306 29.5055L6.81896 29.4095L6.82017 29.4083L6.86607 29.3135L6.91317 29.2174L6.91438 29.2156L6.9627 29.1214L7.01101 29.0278L7.01222 29.026L7.11127 28.8387V28.8369L7.162 28.7451L7.16321 28.7439L7.21273 28.6564L5.98732 27.4291L5.91304 27.3561L5.96981 27.2673L6.14979 26.9852V26.9834L6.26816 26.8053V26.804L6.38834 26.6271L6.38955 26.6247L6.51095 26.4507L6.51336 26.4489L6.63717 26.2756L6.63838 26.2744L6.7646 26.1035L6.76581 26.1011L6.89566 25.932V25.9313L7.02732 25.7634L7.02853 25.7616L7.162 25.5962L7.16442 25.5943L7.3003 25.4313L7.30151 25.4289L7.43921 25.2676L7.44042 25.2664L7.58174 25.107L7.58295 25.1058L7.72609 24.9469L7.7273 24.9463L7.87224 24.7899L7.87345 24.7887L8.01961 24.6341L8.02202 24.6329L8.17059 24.4813L8.1718 24.4801L8.32279 24.3303L8.324 24.3291L8.4774 24.1811L8.47981 24.1799L8.63563 24.035L8.79326 23.8906L8.79568 23.8894L8.95391 23.7487L8.95512 23.7469L9.11758 23.608L9.28186 23.4715L9.28306 23.4697L9.44794 23.3356L9.44915 23.3344L9.61705 23.2021L9.61886 23.2009L9.78796 23.0711L9.78917 23.0704L9.96009 22.9424L9.9613 22.9418L10.1334 22.8162L10.1358 22.8156L10.3104 22.693L10.3116 22.6924L10.4873 22.571L10.4898 22.5704L10.6679 22.4532L10.6691 22.4514L10.9512 22.2702L11.0393 22.2147L11.1136 22.2883L12.3378 23.5131L12.4278 23.4636L12.5208 23.4123V23.4111L12.615 23.3603L12.7099 23.3108L12.7111 23.3102L12.8041 23.2613L12.8065 23.2601L12.9007 23.2124L12.9019 23.2112L13.0928 23.117L13.094 23.1163L13.19 23.0704L13.1912 23.0698L13.2866 23.0239L13.2878 23.0227L13.3845 22.9786L13.3857 22.9774L13.4835 22.9346L13.5801 22.8905H13.5814L13.6804 22.8476L13.7795 22.8059L13.7807 22.8053L13.8785 22.7649L13.8797 22.7642L13.9788 22.7244H13.98L14.079 22.6851L14.0802 22.6845L14.1805 22.6453L14.2807 22.6072L14.2831 22.606L14.3834 22.5698L14.4849 22.5329H14.4861L14.5875 22.4979L14.5887 22.4973L14.6902 22.4635L14.7929 22.4285H14.7953L14.898 22.3952L15.0006 22.3626H15.0018L15.1051 22.3306L15.1087 22.33V20.4813L15.209 20.4578L15.4331 20.4034H15.4343L15.543 20.3781H15.5442L15.6529 20.3533L15.6541 20.3527L15.7634 20.3291H15.7646L15.8745 20.3056H15.8758L15.9851 20.2826H15.9863L16.0962 20.2615L16.2085 20.2404L16.319 20.2204H16.3203L16.4314 20.2005H16.4326L16.5431 20.1818H16.5443L16.6567 20.1649L16.7696 20.1479H16.7708L16.8831 20.1316H16.8843L16.9961 20.1165L17.1096 20.102L17.1108 20.1014L17.2238 20.0888L17.3385 20.0755H17.3397L17.4527 20.064L17.5662 20.0531L17.5674 20.0525L17.6816 20.0429H17.6828L17.7969 20.0338H17.7981L17.9129 20.0259L18.027 20.0187H18.0282L18.143 20.0115H18.1454L18.2607 20.0054L18.3755 20.0006L18.4921 19.997H18.4933L18.6098 19.9939L18.7258 19.9915H18.727L18.8435 19.9897H19.0797L19.195 19.9915H19.1963L19.3116 19.9939H19.3128L19.4288 19.997H19.43L19.5453 20.0006H19.5465L19.6619 20.0054L19.7779 20.0115H19.7791L19.8932 20.0187H19.8944L20.0092 20.0259L20.1233 20.0338H20.1245L20.2399 20.0429H20.2411L20.3546 20.0525L20.3558 20.0531L20.47 20.064L20.5823 20.0755H20.5847L20.6977 20.0888H20.6989L20.8112 20.1014L20.8136 20.102L20.9254 20.1165L21.0389 20.1316L21.1518 20.1479H21.153L21.2654 20.1649L21.3771 20.1818H21.3783L21.4894 20.2005H21.4907L21.6012 20.2204H21.6036L21.7135 20.2404H21.7147L21.8252 20.2615L21.9364 20.2826H21.9376L22.0475 20.3056H22.0487L22.158 20.3291L22.2679 20.3527L22.2691 20.3533L22.3785 20.3781H22.3797L22.4884 20.4034L22.7136 20.4578L22.8139 20.4819V22.33L22.8163 22.3306H22.8175L23.0253 22.3946L23.1267 22.4285H23.1292L23.2318 22.4635L23.3339 22.4973L23.4354 22.5329H23.4366L23.538 22.5698L23.6383 22.606L23.6419 22.6072L23.741 22.6447L23.7422 22.6453L23.8424 22.6845L23.8436 22.6851L23.9427 22.7244L24.0417 22.7642L24.0429 22.7649L24.142 22.8053L24.1432 22.8059L24.241 22.8476H24.2422L24.3401 22.8905H24.3413L24.4397 22.934L24.4403 22.9346L24.5376 22.9774V22.9786L24.6342 23.0227L24.6354 23.0239L24.732 23.0698L24.7332 23.0704L24.8287 23.1163L24.8299 23.117L25.0207 23.2112L25.0219 23.2124L25.1168 23.2601L25.2122 23.3096L25.2134 23.3108L25.3064 23.3603L25.3076 23.3609L25.4006 23.4117L25.4942 23.4624L25.4954 23.4636L25.5836 23.5131L26.8078 22.2883L26.8821 22.2141L26.9709 22.2702L27.2529 22.4514L27.2541 22.4532L27.4323 22.5704L27.4347 22.571L27.611 22.6924L27.6123 22.693L27.7874 22.8156L27.788 22.8162L27.9619 22.9418L27.9632 22.9424L28.1341 23.0704L28.1353 23.0711L28.3038 23.2009L28.305 23.2021L28.4723 23.3338L28.4735 23.3356L28.639 23.4697L28.6402 23.4715L28.8038 23.608H28.8051L28.9669 23.7475L28.9681 23.7487L29.1282 23.8894L29.1294 23.8906L29.2864 24.0343L29.2876 24.035L29.4434 24.1799L29.4446 24.1811L29.598 24.3291L29.5992 24.3303L29.7502 24.4801L29.752 24.4813L29.9012 24.6329L29.9018 24.6341L30.0498 24.7881L30.051 24.7899L30.1959 24.9463L30.3397 25.1058L30.3409 25.107L30.481 25.2664L30.4822 25.2676L30.6205 25.4289L30.6217 25.4313L30.757 25.5943L30.7582 25.5956L30.8929 25.7616L30.8941 25.7634L31.0264 25.9307L31.0276 25.932L31.1562 26.1017L31.1574 26.1035L31.2849 26.2744V26.2756L31.4099 26.4489L31.4111 26.4507L31.5337 26.6247L31.5349 26.6271L31.6539 26.804L31.6551 26.8053L31.7729 26.984V26.9852L31.9534 27.2673L32.009 27.3561L31.9359 27.4291L30.7087 28.6558L30.7582 28.7439L30.7594 28.7451L30.8102 28.8369V28.8387L30.8609 28.9324L30.9104 29.026L30.9116 29.0278L30.9587 29.1208L30.9599 29.1214L31.0083 29.2156V29.2168L31.056 29.3116V29.3128L31.1031 29.4083L31.1043 29.4095L31.149 29.5061L31.1949 29.6021V29.6033L31.2384 29.7H31.2396L31.2837 29.7966V29.7984L31.3259 29.8957L31.3271 29.8969L31.3682 29.9947L31.4099 30.0925L31.4111 30.0944L31.4509 30.1922V30.1934L31.4908 30.2931L31.492 30.2937L31.5313 30.3933L31.5687 30.4942L31.6068 30.595L31.6442 30.6959V30.6977L31.6798 30.7973V30.7986L31.7149 30.9V30.9018L31.7493 31.0021L31.7505 31.0033L31.7837 31.1054L31.8163 31.2086L31.8483 31.3125L31.8496 31.3143L31.8804 31.417V31.4194H33.726L33.7502 31.5197L33.8051 31.7425V31.7443L33.8299 31.8524L33.8547 31.9606L33.8782 32.0705V32.0717L33.9024 32.1804L33.9235 32.2903L33.9446 32.4008V32.4014L33.9646 32.5114L33.9658 32.512L33.9857 32.6225L34.0032 32.7336L34.0226 32.8435V32.8453L34.0401 32.9559V32.9571L34.0564 33.0676L34.0721 33.1799V33.1811L34.086 33.2923L34.0872 33.2941L34.1017 33.4052L34.1144 33.5175V33.5199L34.1276 33.6323L34.1391 33.7446V33.7464L34.1488 33.8588L34.15 33.86L34.159 33.9717V33.9729L34.1687 34.0864V34.0877L34.1772 34.2006L34.1838 34.3153L34.1898 34.4307V34.4313L34.1959 34.546L34.2007 34.6608V34.662L34.2043 34.7762L34.2074 34.8915V34.8933L34.2098 35.0081L34.211 35.1246ZM0.522206 0.048584L0.475098 50.7959C12.7829 57.0781 25.092 57.0715 37.3998 50.7959L37.4457 0.048584H0.522206Z" fill="white"></path><path fill-rule="evenodd" clip-rule="evenodd" d="M24.1518 38.4717V38.4753L24.1458 38.5871V38.5925L24.1379 38.7024L24.1367 38.7078L24.1108 38.9114V38.9174L24.0763 39.1143L24.0739 39.1215L24.0328 39.3106L24.0316 39.3154L23.9821 39.4984L23.9809 39.5044L23.9229 39.6802L23.9205 39.6856L23.8571 39.8553L23.8547 39.8614L23.784 40.0238L23.7816 40.0299L23.7037 40.1857L23.7013 40.1917L23.6173 40.3433L23.6137 40.3488L23.5243 40.4943L23.5219 40.4979L23.4265 40.6393L23.4229 40.6447L23.3226 40.7806L23.319 40.7842L23.2139 40.9147L23.2115 40.9195L23.1022 41.0457L23.0985 41.0493L22.985 41.1725L22.9826 41.1756L22.8648 41.2945L22.8624 41.297L22.741 41.4135L22.7386 41.4159L22.6136 41.5283L22.6124 41.5307L22.4849 41.6418L22.4825 41.643L22.3527 41.7511L22.3509 41.7523L22.2186 41.858L22.2174 41.8598L22.0827 41.9631L22.0803 41.9643L21.9849 42.0374L21.9933 42.0338L22.0815 42.0018H22.0827L22.1703 41.9704L22.2585 41.9377H22.2597L22.3448 41.9051L22.4294 41.8731L22.5133 41.8417L22.5961 41.8091L22.6752 41.7765L22.7543 41.7451L22.8286 41.7143L22.9029 41.6811L22.9711 41.6509L23.0381 41.6201V41.6195L23.1046 41.5881L23.1903 41.5452L23.2779 41.5011L23.3588 41.4582L23.4416 41.4129H23.4428L23.5195 41.3676L23.5974 41.3217L23.6729 41.274L23.7472 41.2251L23.8215 41.1725L23.8921 41.12L23.9586 41.0687L24.0268 41.0113L24.0963 40.9497L24.1591 40.8905V40.8899L24.2237 40.8265L24.2889 40.7558L24.33 40.7105L24.3674 40.6676H24.3662L24.4055 40.6224L24.4405 40.5807L24.4749 40.5348H24.4761L24.5094 40.4907L24.5402 40.4496L24.5716 40.4037L24.6012 40.3614L24.6308 40.3155L24.6579 40.2739L24.6827 40.2298L24.7099 40.1827H24.7111L24.7346 40.138L24.757 40.0945L24.7793 40.0504H24.7781L24.8005 40.0015H24.8017L24.8204 39.9562L24.8397 39.9109L24.8584 39.8596L24.8772 39.8106L24.8929 39.7654L24.9092 39.7122L24.9243 39.6621L24.9376 39.6095H24.9388L24.9515 39.5576H24.9502L24.9647 39.5014L24.9762 39.4471L24.9883 39.3891L24.9986 39.3347H24.9974L25.0082 39.2756L25.0167 39.2133H25.0179L25.0282 39.127L25.0378 39.0364H25.039L25.0469 38.9506H25.0457L25.0529 38.8594L25.0577 38.7707L25.0614 38.6813L25.0638 38.5913L25.065 38.5019V38.4119L25.0626 38.3207L25.0614 38.2295L25.0577 38.1395L25.0529 38.0477L25.0481 37.9547L25.0439 37.8647L25.0366 37.7711L25.0294 37.6787L25.0221 37.5857L25.0155 37.4927L25.0082 37.3985L25.001 37.3061L24.9931 37.2125L24.9859 37.1189L24.9774 37.0246V37.0234L24.9714 36.9298L24.9647 36.8356L24.9599 36.7408L24.9539 36.646V36.6454L24.9478 36.5517V36.5499L24.9442 36.4557V36.4545L24.9424 36.3603V36.3591L24.94 36.2649V36.2637L24.9388 36.1737L24.9376 36.1713V36.0807L24.9388 36.0789L24.94 35.9859V35.9846L24.9424 35.891V35.8892L24.9454 35.7962V35.7944L24.9502 35.6996V35.6978L24.9563 35.6036V35.6017L24.9635 35.5063V35.5033L24.9726 35.4079V35.4067L24.9835 35.31L24.9847 35.3076L24.9961 35.2122V35.2098L25.0094 35.1138L25.0106 35.1113L25.0257 35.0153V35.0141L25.0439 34.9187V34.9157L25.0626 34.8202L25.0638 34.8184L25.0837 34.7224L25.0849 34.7194L25.1085 34.6246L25.1097 34.6227L25.1332 34.5291L25.1344 34.5255L25.1616 34.4325L25.1628 34.4301L25.1912 34.3377L25.1924 34.3335L25.2238 34.2423L25.225 34.2398L25.2583 34.1486L25.2595 34.145L25.2963 34.055L25.2969 34.0526L25.3362 33.965L25.3374 33.962L25.3772 33.8738L25.3796 33.8702L25.4231 33.7845L25.4243 33.7802L25.4388 33.7537V33.7549L25.3513 33.7778L25.2679 33.8032L25.1864 33.8298H25.1876L25.1049 33.8587V33.86L25.0197 33.892L24.94 33.9252L24.8621 33.959L24.7793 33.9989L24.7014 34.0375L24.6199 34.0804L24.5613 34.1148L24.4912 34.1589L24.4266 34.2024L24.3523 34.2549L24.2829 34.3081L24.2098 34.3655L24.1355 34.4259L24.0612 34.4887L23.9888 34.5521H23.9876L23.9169 34.6167L23.8474 34.6789L23.7792 34.7447L23.714 34.8075L23.6149 34.9066V34.9108L23.6294 35.0213H23.6306L23.6481 35.1367H23.6469L23.6656 35.2521H23.6669L23.6868 35.3716L23.7085 35.49L23.7309 35.6108H23.7321L23.7556 35.7328L23.7804 35.856L23.8052 35.9804L23.8311 36.1054L23.8571 36.2311L23.8831 36.3579L23.909 36.4847L23.935 36.6109L23.961 36.7384L23.9845 36.8664L24.0081 36.9926L24.0093 36.9938L24.0316 37.1201V37.1219L24.0516 37.2469V37.2481L24.0715 37.3731V37.3743L24.089 37.4981V37.4999L24.1059 37.6232L24.1071 37.625L24.121 37.7476V37.7506L24.1319 37.872L24.1331 37.8738L24.1422 37.9934V37.997L24.1494 38.1154V38.1178L24.153 38.235V38.238L24.1542 38.3545V38.3576L24.1518 38.4717Z" fill="white"></path><path fill-rule="evenodd" clip-rule="evenodd" d="M25.2181 43.4054H25.2193C25.6167 43.1004 25.993 42.7646 26.3445 42.4022C28.1443 40.5469 29.2555 38.0194 29.2555 35.2406V35.2352C29.2555 34.502 29.1776 33.7845 29.029 33.0918C28.8817 32.4008 28.6649 31.7341 28.384 31.1005C26.966 27.8912 23.9523 25.5328 20.3594 25.0411L20.5104 28.0566L20.7628 33.1123C20.9204 32.9571 21.0871 32.8176 21.2617 32.6919C21.496 32.5265 21.7497 32.3863 22.0317 32.2722C22.5734 32.053 23.1406 31.9745 23.7083 31.8953C23.8236 31.8784 23.9402 31.8627 24.0797 31.8422L24.3829 31.8017L24.2011 32.0506L24.1914 32.0626C24.1304 32.1442 24.0737 32.2299 24.0217 32.3199C23.971 32.4105 23.9239 32.5065 23.8816 32.6056C23.7137 33.0012 23.6219 33.4439 23.5808 33.8564C23.6122 33.8268 23.6455 33.7984 23.6799 33.77C23.8025 33.6679 23.936 33.5743 24.0773 33.4885C24.7887 33.0573 25.6862 32.8532 26.5722 32.8L26.8482 32.7843L26.6851 33.0072L26.6839 33.009C26.6277 33.0875 26.571 33.1703 26.5166 33.2566C26.4611 33.3448 26.4067 33.4372 26.3548 33.5314C26.086 34.0249 25.8595 34.6228 25.7677 35.2273C25.6638 35.9098 25.717 36.6007 25.7689 37.2904C25.7864 37.5259 25.8052 37.7615 25.8172 38.0097C25.8336 38.3443 25.8384 38.6789 25.8112 39.0098C25.7852 39.3462 25.7261 39.6784 25.6204 40.0039H25.6192V40.0051C25.5908 40.0921 25.5575 40.1785 25.5213 40.2654C25.4857 40.3494 25.4458 40.4321 25.4041 40.5112C25.1873 40.9249 24.8878 41.2861 24.5254 41.5923C24.1407 41.9197 23.6702 42.186 23.1677 42.4119C22.7299 42.6082 22.2691 42.7748 21.8161 42.924L21.8221 42.9307C21.868 42.9802 21.9164 43.0291 21.9659 43.0768C22.2256 43.3238 22.539 43.5455 22.8905 43.7333C23.0639 43.8269 23.2493 43.9139 23.4437 43.996C23.6219 44.0709 23.8097 44.1422 24.0054 44.2092C24.4288 43.9694 24.8346 43.7013 25.2181 43.4054Z" fill="white"></path><path fill-rule="evenodd" clip-rule="evenodd" d="M17.0483 35.0878C16.6086 36.1181 16.3948 37.1007 16.402 38.0374C16.4093 38.9657 16.6358 39.8559 17.0754 40.7081C17.5036 41.5349 18.1335 42.3261 18.9616 43.0822C19.7884 42.3261 20.4183 41.5349 20.8465 40.7081C21.2868 39.8559 21.5132 38.9657 21.5205 38.0374C21.5271 37.1001 21.3139 36.1169 20.8737 35.0878C20.4491 34.0913 19.8119 33.0519 18.9616 31.9684C18.11 33.0519 17.474 34.0913 17.0483 35.0878Z" fill="white"></path><path fill-rule="evenodd" clip-rule="evenodd" d="M97.5247 47.7785C97.4752 47.7423 97.4257 47.7169 97.3749 47.7C97.3242 47.6837 97.2698 47.6765 97.207 47.6765C96.983 47.6765 96.8133 47.7526 96.6955 47.9042C96.5783 48.0533 96.5197 48.272 96.5197 48.5576V49.7069C96.5197 49.8422 96.5361 49.9546 96.5717 50.0458C96.6067 50.1363 96.6623 50.2161 96.7378 50.2831H95.702C95.7799 50.2161 95.8367 50.1363 95.8693 50.0458C95.9025 49.954 95.92 49.8422 95.92 49.7069V47.787C95.92 47.6511 95.9037 47.5339 95.8687 47.4415C95.8343 47.3491 95.7787 47.2688 95.702 47.2006H95.7714C95.8753 47.2006 95.984 47.1945 96.1006 47.183C96.2141 47.1722 96.3416 47.1535 96.4781 47.1311L96.5264 47.6221C96.62 47.4572 96.7245 47.3358 96.8465 47.2567C96.9667 47.1782 97.1032 47.1377 97.259 47.1377C97.2958 47.1377 97.3345 47.1396 97.3749 47.1444C97.4148 47.1486 97.4643 47.1559 97.5247 47.1686V47.7785ZM92.8417 48.6675C92.8556 49.0517 92.977 49.3573 93.2059 49.5843C93.436 49.8114 93.7355 49.925 94.1052 49.925C94.27 49.925 94.4434 49.8972 94.6264 49.8446C94.8094 49.7903 95.0063 49.7075 95.2194 49.5958L94.8764 50.1907C94.6946 50.2589 94.5225 50.3103 94.3643 50.3441C94.2066 50.3767 94.0574 50.3948 93.9173 50.3948C93.4052 50.3948 92.983 50.2384 92.6502 49.9286C92.3181 49.6188 92.1538 49.2244 92.1538 48.7467C92.1538 48.2575 92.3048 47.8546 92.6104 47.5406C92.9172 47.2277 93.3061 47.0707 93.7814 47.0707C94.2181 47.0707 94.566 47.2132 94.8245 47.5001C95.0817 47.7858 95.214 48.1759 95.2194 48.6675H92.8417ZM92.8852 48.2339H94.5322C94.5189 48.0171 94.4385 47.8377 94.2912 47.7C94.1438 47.5617 93.9608 47.4923 93.7404 47.4923C93.5036 47.4923 93.3098 47.5581 93.1576 47.6898C93.0054 47.8226 92.9148 48.0038 92.8852 48.2339ZM89.395 49.7957C89.4771 49.8422 89.5623 49.876 89.6486 49.8972C89.7344 49.9207 89.828 49.9322 89.9271 49.9322C90.284 49.9322 90.5672 49.8247 90.775 49.6115C90.9828 49.3983 91.0866 49.1102 91.0866 48.7467C91.0866 48.4169 91.0003 48.1512 90.8306 47.9476C90.6596 47.7435 90.435 47.6414 90.1578 47.6414C90.0811 47.6414 89.9953 47.6535 89.9035 47.6753C89.8099 47.697 89.7048 47.7296 89.5894 47.7713L89.921 47.1818C89.9917 47.1722 90.0533 47.1637 90.1094 47.1583C90.165 47.1535 90.2194 47.1516 90.2689 47.1516C90.711 47.1516 91.0649 47.2899 91.3306 47.5702C91.597 47.8504 91.7292 48.2224 91.7292 48.6881C91.7292 49.2123 91.5571 49.6302 91.2129 49.9401C90.868 50.2499 90.4036 50.4063 89.8159 50.4063C89.6601 50.4063 89.4783 50.393 89.27 50.3658C89.0646 50.3399 88.8309 50.3012 88.5712 50.2511C88.6467 50.1835 88.7035 50.1037 88.7379 50.0107C88.7729 49.9183 88.7898 49.803 88.7898 49.6659V46.3454C88.7898 46.2077 88.7723 46.0929 88.7379 46.0011C88.7022 45.9093 88.6467 45.8302 88.5712 45.7626H89.395V49.7957ZM83.6267 49.7069C83.6267 49.8422 83.6442 49.9546 83.6786 50.0458C83.7142 50.1363 83.7692 50.2161 83.8447 50.2831H82.8089C82.8868 50.2161 82.9436 50.1363 82.9768 50.0458C83.0106 49.954 83.0288 49.8422 83.0288 49.7069V47.787C83.0288 47.6511 83.0106 47.5339 82.9768 47.4415C82.9412 47.3491 82.8856 47.2688 82.8089 47.2006H82.879C82.9829 47.2006 83.0922 47.1945 83.2069 47.183C83.3223 47.1722 83.4485 47.1535 83.5868 47.1311L83.614 47.6221C83.7704 47.4554 83.9299 47.3316 84.0923 47.2519C84.2542 47.171 84.4263 47.1311 84.6057 47.1311C84.8207 47.1311 85.0151 47.1758 85.1885 47.264C85.3618 47.3528 85.5176 47.488 85.6565 47.6698C85.8492 47.4832 86.0316 47.3473 86.2055 47.2604C86.3801 47.1746 86.5582 47.1311 86.7394 47.1311C87.0794 47.1311 87.3567 47.2344 87.5674 47.4415C87.78 47.6487 87.8863 47.9217 87.8863 48.2587V49.7069C87.8863 49.8422 87.9026 49.9546 87.9383 50.0458C87.9733 50.1363 88.0301 50.2161 88.108 50.2831H87.0686C87.1465 50.2161 87.2032 50.1363 87.2383 50.0458C87.2727 49.9546 87.2902 49.8422 87.2902 49.7069V48.6041C87.2902 48.2677 87.2304 48.0237 87.109 47.8709C86.987 47.7175 86.7938 47.6414 86.5311 47.6414C86.2569 47.6414 86.0588 47.7115 85.9398 47.8528C85.8208 47.9929 85.7604 48.2279 85.7604 48.5576V49.7069C85.7604 49.8422 85.7779 49.9546 85.8124 50.0458C85.8456 50.1363 85.9023 50.2161 85.9797 50.2831H84.9336C85.0115 50.2161 85.0695 50.1363 85.1033 50.0458C85.139 49.9546 85.1553 49.8422 85.1553 49.7069V48.6041C85.1553 48.2677 85.0955 48.0237 84.9735 47.8709C84.8521 47.7175 84.66 47.6414 84.3955 47.6414C84.1219 47.6414 83.925 47.7115 83.806 47.8528C83.6871 47.9929 83.6267 48.2279 83.6267 48.5576V49.7069ZM79.9486 48.6675C79.9643 49.0517 80.0845 49.3573 80.3134 49.5843C80.5423 49.8114 80.8431 49.925 81.2121 49.925C81.377 49.925 81.5503 49.8972 81.7333 49.8446C81.9163 49.7903 82.1132 49.7075 82.327 49.5958L81.9845 50.1907C81.8022 50.2589 81.6294 50.3103 81.4718 50.3441C81.3136 50.3767 81.165 50.3948 81.0243 50.3948C80.5127 50.3948 80.0894 50.2384 79.7578 49.9286C79.4262 49.6188 79.2601 49.2244 79.2601 48.7467C79.2601 48.2575 79.4129 47.854 79.7173 47.5406C80.0229 47.2271 80.4137 47.0707 80.889 47.0707C81.3262 47.0707 81.6735 47.2132 81.9314 47.5001C82.1887 47.7858 82.3209 48.1759 82.327 48.6675H79.9486ZM79.9921 48.2339H81.6391C81.6258 48.0171 81.5461 47.8377 81.3987 47.7C81.2508 47.5617 81.0684 47.4923 80.8485 47.4923C80.6118 47.4923 80.4161 47.5581 80.2651 47.6898C80.1129 47.8226 80.0217 48.0038 79.9921 48.2339ZM75.3816 51.6317C75.4595 51.5641 75.5145 51.485 75.5489 51.3944C75.5821 51.3044 75.5996 51.1908 75.5996 51.0556V47.7858C75.5996 47.6493 75.5833 47.5339 75.5477 47.4415C75.512 47.3491 75.4571 47.2688 75.3816 47.2006H75.4625C75.5785 47.2006 75.6926 47.1945 75.8098 47.183C75.9251 47.1722 76.0441 47.1535 76.1637 47.1311L76.1915 47.6221C76.3509 47.4494 76.5243 47.3189 76.7133 47.2326C76.9017 47.1468 77.1047 47.1027 77.3197 47.1027C77.7467 47.1027 78.106 47.2537 78.3977 47.5539C78.6912 47.8552 78.8362 48.2267 78.8362 48.6675C78.8362 48.958 78.7812 49.2208 78.6665 49.4617C78.5547 49.6997 78.3917 49.8978 78.1815 50.0548C78.0414 50.1599 77.894 50.2396 77.7382 50.2904C77.5812 50.3423 77.4139 50.3689 77.2345 50.3689C77.159 50.3689 77.0787 50.3622 76.9959 50.352C76.915 50.3423 76.8323 50.3272 76.7495 50.3079L76.3666 49.751C76.4971 49.8108 76.6197 49.8531 76.7308 49.8815C76.8431 49.9105 76.9476 49.925 77.0467 49.925C77.3964 49.925 77.6675 49.8235 77.862 49.6212C78.0589 49.4183 78.1555 49.135 78.1555 48.7726C78.1555 48.4229 78.0589 48.1373 77.8656 47.9138C77.6712 47.6898 77.4241 47.578 77.1258 47.578C76.9996 47.578 76.8794 47.6004 76.7652 47.6445C76.6517 47.6885 76.549 47.7538 76.4584 47.8377C76.3666 47.9223 76.3002 48.0286 76.2628 48.1566C76.2247 48.284 76.2048 48.5003 76.2048 48.804V51.0556C76.2048 51.1908 76.2223 51.3044 76.2567 51.3944C76.2917 51.4856 76.3473 51.5641 76.4228 51.6317H75.3816ZM71.4946 48.7787C71.4946 48.5462 71.5375 48.3281 71.6268 48.1252C71.7138 47.9211 71.84 47.7375 72.0116 47.578C72.1728 47.4258 72.3643 47.3075 72.5811 47.2235C72.7979 47.139 73.0244 47.0967 73.2593 47.0967C73.5021 47.0967 73.7219 47.1353 73.9176 47.2138C74.1145 47.2918 74.2915 47.4113 74.4509 47.5708C74.6061 47.7278 74.7269 47.9048 74.8078 48.0986C74.8906 48.2949 74.9323 48.499 74.9323 48.7116C74.9323 48.9466 74.8882 49.1664 74.8012 49.3693C74.7148 49.5729 74.5874 49.7553 74.4177 49.9129C74.2582 50.0621 74.0686 50.1792 73.8512 50.2626C73.6344 50.3459 73.4079 50.3876 73.173 50.3876C72.9253 50.3876 72.7049 50.3495 72.5116 50.274C72.3166 50.1979 72.1396 50.0796 71.9783 49.9189C71.8225 49.7631 71.7023 49.5855 71.6196 49.3887C71.535 49.1918 71.4946 48.9876 71.4946 48.7787ZM72.1752 48.6494C72.1752 49.0335 72.2743 49.344 72.4712 49.5813C72.6693 49.8187 72.9253 49.9383 73.2418 49.9383C73.5414 49.9383 73.7842 49.832 73.9732 49.62C74.1628 49.408 74.2558 49.1338 74.2558 48.7974C74.2558 48.4368 74.1556 48.1391 73.9539 47.9048C73.7521 47.6698 73.4967 47.5533 73.1862 47.5533C72.8945 47.5533 72.6542 47.6571 72.4621 47.8655C72.2707 48.0733 72.1752 48.3354 72.1752 48.6494ZM70.9275 45.8834C70.8321 45.9655 70.7656 46.0597 70.727 46.166C70.6877 46.2711 70.6678 46.4348 70.6678 46.6558V50.3846C70.5144 50.3797 70.367 50.3308 70.2281 50.2354C70.0916 50.1406 69.9183 49.9582 69.7087 49.6943L67.4355 46.8303V49.5034C67.4355 49.7335 67.456 49.9008 67.4934 50.0041C67.5315 50.1074 67.8673 49.9298 67.9609 50.0119L66.6926 50.2831C66.7856 50.1986 66.852 50.1031 66.8919 49.9968C66.9306 49.8899 66.9523 49.7245 66.9523 49.5034V46.6558C66.9523 46.4348 66.9306 46.2711 66.8919 46.166C66.852 46.0603 66.7856 45.9655 66.6926 45.8834H67.5852L70.1901 49.1869V46.6558C70.1901 46.4348 70.1683 46.2711 70.1291 46.166C70.0898 46.0597 70.024 45.9655 69.9304 45.8834H70.9275ZM61.8411 49.7069V48.5564C61.8411 48.2261 61.8997 47.9875 62.0193 47.8468C62.1382 47.7055 62.3363 47.6354 62.6087 47.6354C62.8732 47.6354 63.0665 47.7115 63.1879 47.8661C63.3093 48.0195 63.3697 48.2671 63.3697 48.6041V49.7069C63.3697 49.8422 63.3534 49.9546 63.3177 50.0458C63.2821 50.1363 63.2259 50.2161 63.148 50.2831H64.1941C64.115 50.2161 64.0588 50.1363 64.0256 50.0458C63.9923 49.9546 63.976 49.8422 63.976 49.7069V48.2587C63.976 47.9241 63.8673 47.6511 63.6541 47.4433C63.4403 47.235 63.1607 47.1311 62.8201 47.1311C62.6383 47.1311 62.4674 47.1722 62.3067 47.2507C62.1455 47.3292 61.9872 47.4536 61.8278 47.6221V45.7626C61.6678 45.7873 61.5246 45.806 61.402 45.8187C61.2782 45.8308 61.1707 45.8375 61.0801 45.8375H61.0233C61.1013 45.9063 61.1568 45.9848 61.1912 46.076C61.2239 46.1672 61.242 46.2795 61.242 46.416V49.7069C61.242 49.8422 61.2239 49.9546 61.1912 50.0458C61.1568 50.1363 61.1013 50.2161 61.0233 50.2831H62.0591C61.9836 50.2161 61.9281 50.1363 61.893 50.0458C61.8574 49.9546 61.8411 49.8422 61.8411 49.7069ZM59.7557 49.8676C59.5974 50.0361 59.438 50.1611 59.2779 50.2414C59.1173 50.3224 58.9464 50.3622 58.7646 50.3622C58.4246 50.3622 58.1474 50.2559 57.9317 50.047C57.7173 49.8362 57.6086 49.5632 57.6086 49.2244V47.7858C57.6086 47.6493 57.5923 47.5339 57.5567 47.4415C57.5211 47.3491 57.4661 47.267 57.3906 47.2006H57.4788C57.6014 47.2006 57.724 47.1945 57.8466 47.183C57.9686 47.1716 58.0912 47.1535 58.2102 47.1311L58.2138 48.888C58.2138 49.222 58.2748 49.466 58.3956 49.6194C58.5145 49.7722 58.7066 49.8483 58.9711 49.8483C59.2471 49.8483 59.4452 49.7776 59.5642 49.6369C59.6832 49.495 59.7436 49.2582 59.7436 48.9266V47.7858C59.7436 47.6493 59.7261 47.5339 59.6904 47.4415C59.6566 47.3491 59.5998 47.267 59.5219 47.2006H59.5998C59.7128 47.2006 59.8299 47.1951 59.9501 47.183C60.0715 47.1716 60.2026 47.1535 60.3415 47.1311V49.6266C60.3415 49.7625 60.3596 49.876 60.3934 49.9666C60.4254 50.0566 60.4834 50.1363 60.5601 50.204H60.5033C60.4103 50.204 60.3089 50.2094 60.1965 50.2227C60.0848 50.2342 59.9489 50.2559 59.7871 50.2831L59.7557 49.8676ZM56.7214 49.7069C56.7214 49.8422 56.7389 49.9546 56.7746 50.0458C56.809 50.1363 56.8652 50.2149 56.9395 50.2831H55.9109C55.9888 50.2149 56.0456 50.1363 56.0788 50.0458C56.1114 49.9546 56.1296 49.8422 56.1296 49.7069V46.4142C56.1296 46.2795 56.1114 46.1672 56.0788 46.076C56.0456 45.9848 55.9888 45.9063 55.9109 45.8375H55.9798C56.0492 45.8375 56.132 45.8338 56.2298 45.8236C56.3277 45.8145 56.4925 45.7946 56.7214 45.7626V49.7069ZM54.6372 49.8676C54.4778 50.0361 54.3201 50.1611 54.1583 50.2414C53.9988 50.3224 53.8267 50.3622 53.6461 50.3622C53.3055 50.3622 53.0295 50.2559 52.8133 50.047C52.5989 49.8362 52.4902 49.5632 52.4902 49.2244V47.7858C52.4902 47.6493 52.4727 47.5339 52.4382 47.4415C52.4026 47.3491 52.3476 47.267 52.2709 47.2006H52.3591C52.4817 47.2006 52.6055 47.1945 52.7269 47.183C52.8501 47.1716 52.9727 47.1535 53.0917 47.1311L53.0953 48.888C53.0953 49.222 53.1557 49.466 53.2759 49.6194C53.3961 49.7722 53.5888 49.8483 53.8527 49.8483C54.1275 49.8483 54.3268 49.7776 54.4464 49.6369C54.5653 49.495 54.6245 49.2582 54.6245 48.9266V47.7858C54.6245 47.6493 54.6076 47.5339 54.5726 47.4415C54.537 47.3491 54.4802 47.267 54.4023 47.2006H54.4814C54.5937 47.2006 54.7103 47.1945 54.8317 47.183C54.9531 47.1722 55.0841 47.1535 55.2236 47.1311V49.6266C55.2236 49.7625 55.2412 49.876 55.2744 49.9666C55.307 50.0566 55.3638 50.1363 55.4417 50.204H55.3837C55.2919 50.204 55.1892 50.2094 55.0775 50.2227C54.9664 50.2342 54.8293 50.2559 54.6692 50.2831L54.6372 49.8676ZM48.3791 51.6317C48.4558 51.5641 48.5126 51.485 48.547 51.3944C48.5796 51.3044 48.5977 51.1908 48.5977 51.0556V47.7858C48.5977 47.6493 48.5796 47.5339 48.5458 47.4415C48.5102 47.3491 48.4546 47.2688 48.3791 47.2006H48.4606C48.576 47.2006 48.6907 47.1945 48.8073 47.183C48.9233 47.1722 49.041 47.1535 49.1612 47.1311L49.1896 47.6221C49.349 47.4494 49.5224 47.3189 49.7108 47.2326C49.9011 47.1468 50.1028 47.1027 50.3172 47.1027C50.743 47.1027 51.1041 47.2537 51.3952 47.5539C51.6881 47.8552 51.8343 48.2267 51.8343 48.6675C51.8343 48.958 51.7775 49.2208 51.6646 49.4617C51.5522 49.6997 51.3898 49.8978 51.1796 50.0548C51.0395 50.1599 50.8915 50.2396 50.7363 50.2904C50.5793 50.3423 50.4114 50.3689 50.2326 50.3689C50.1571 50.3689 50.0768 50.3622 49.9941 50.352C49.9113 50.3423 49.8304 50.3272 49.7477 50.3079L49.3641 49.751C49.4952 49.8108 49.6166 49.8531 49.7277 49.8815C49.8407 49.9105 49.9457 49.925 50.0448 49.925C50.3939 49.925 50.665 49.8235 50.8601 49.6212C51.0558 49.4183 51.1536 49.135 51.1536 48.7726C51.1536 48.4229 51.0558 48.1373 50.8625 47.9138C50.6675 47.6898 50.4223 47.578 50.1239 47.578C49.9977 47.578 49.8775 47.6004 49.7628 47.6445C49.6498 47.6885 49.5471 47.7538 49.4559 47.8377C49.3641 47.9223 49.2983 48.0286 49.2603 48.1566C49.2216 48.284 49.2023 48.5003 49.2023 48.804V51.0556C49.2023 51.1908 49.2204 51.3044 49.2542 51.3944C49.2899 51.4856 49.3454 51.5641 49.4221 51.6317H48.3791ZM45.5176 48.6675C45.5327 49.0517 45.6541 49.3573 45.883 49.5843C46.1119 49.8114 46.4114 49.925 46.7823 49.925C46.9459 49.925 47.1205 49.8972 47.3035 49.8446C47.4853 49.7903 47.6834 49.7075 47.8966 49.5958L47.5535 50.1907C47.3705 50.2589 47.1996 50.3103 47.0414 50.3441C46.8825 50.3767 46.734 50.3948 46.5944 50.3948C46.0817 50.3948 45.6589 50.2384 45.3274 49.9286C44.9952 49.6188 44.8297 49.2244 44.8297 48.7467C44.8297 48.2575 44.9819 47.8546 45.2875 47.5406C45.5931 47.2277 45.9832 47.0707 46.4592 47.0707C46.8952 47.0707 47.2431 47.2132 47.5016 47.5001C47.7576 47.7858 47.8899 48.1759 47.8966 48.6675H45.5176ZM45.5623 48.2339H47.2093C47.196 48.0171 47.1157 47.8377 46.9671 47.7C46.8209 47.5617 46.6367 47.4923 46.4175 47.4923C46.1807 47.4923 45.9857 47.5581 45.8335 47.6898C45.6825 47.8226 45.5907 48.0038 45.5623 48.2339ZM41.4126 50.1853L41.2036 49.3868C41.4597 49.5578 41.7073 49.684 41.9495 49.7673C42.1899 49.8507 42.4284 49.893 42.664 49.893C42.9671 49.893 43.2093 49.8271 43.3929 49.6979C43.5771 49.5686 43.6689 49.3995 43.6689 49.193C43.6689 49.1338 43.6599 49.0752 43.6411 49.016C43.6206 48.958 43.5934 48.9013 43.5572 48.8481C43.4769 48.7285 43.2081 48.5564 42.7503 48.3312C42.6338 48.278 42.5438 48.2333 42.4816 48.2019C42.0522 47.9863 41.7568 47.7888 41.598 47.6064C41.4385 47.4258 41.3594 47.209 41.3594 46.9602C41.3594 46.6033 41.5044 46.32 41.7961 46.1092C42.0872 45.8991 42.487 45.7946 42.9943 45.7946C43.1393 45.7946 43.2999 45.8042 43.4757 45.823C43.6514 45.8417 43.8417 45.8713 44.0452 45.9117V46.6498C43.8652 46.5133 43.681 46.4106 43.498 46.3436C43.3138 46.2753 43.1217 46.2415 42.9249 46.2415C42.6736 46.2415 42.4707 46.2952 42.3173 46.4021C42.1651 46.5096 42.0884 46.651 42.0884 46.8243C42.0884 46.9783 42.1488 47.1154 42.269 47.2326C42.388 47.3509 42.6585 47.5098 43.0795 47.7073C43.103 47.7181 43.1393 47.7363 43.1882 47.758C43.5415 47.9211 43.8072 48.0708 43.9818 48.2085C44.1128 48.31 44.2167 48.4332 44.2886 48.5788C44.3604 48.7249 44.3979 48.8795 44.3979 49.0438C44.3979 49.4225 44.2246 49.7426 43.8779 50.0053C43.5312 50.268 43.0982 50.3997 42.5794 50.3997C42.4115 50.3997 42.2321 50.3809 42.0401 50.3459C41.848 50.3103 41.6391 50.2559 41.4126 50.1853ZM68.1149 43.7152C68.1149 43.8505 68.133 43.9628 68.1668 44.054C68.2025 44.1452 68.2604 44.2237 68.3371 44.2913H67.305C67.3829 44.2237 67.4391 44.1452 67.4747 44.054C67.5097 43.9628 67.5267 43.8505 67.5267 43.7152V41.794C67.5267 41.6581 67.5085 41.5428 67.4723 41.4498C67.4367 41.3574 67.3805 41.277 67.305 41.2088C67.4862 41.2046 67.6432 41.1961 67.7743 41.1852C67.9053 41.1738 68.0183 41.1581 68.1149 41.1393V43.7152ZM67.404 40.385C67.404 40.2781 67.4415 40.1857 67.517 40.1108C67.5937 40.0329 67.6855 39.9961 67.793 39.9961C67.8981 39.9961 67.9875 40.0335 68.0624 40.1108C68.1366 40.1857 68.1729 40.2781 68.1729 40.385C68.1729 40.4955 68.1366 40.5873 68.063 40.6628C67.9911 40.7371 67.9005 40.7752 67.793 40.7752C67.6837 40.7752 67.5901 40.7371 67.5158 40.661C67.4415 40.5849 67.404 40.4931 67.404 40.385ZM67.1335 41.0669L66.9366 41.5621C66.9203 41.5639 66.9004 41.5657 66.8768 41.5669C66.8545 41.5675 66.8176 41.5675 66.7669 41.5675C66.6763 41.5675 66.57 41.5639 66.4498 41.5537C66.329 41.544 66.1937 41.5301 66.0415 41.5108C66.2396 41.6177 66.3858 41.7391 66.48 41.8707C66.576 42.0024 66.6244 42.1546 66.6244 42.3249C66.6244 42.5236 66.564 42.6999 66.4426 42.8552C66.3212 43.011 66.1466 43.1312 65.9214 43.2211C65.7372 43.2948 65.5391 43.3444 65.3277 43.3673C65.3114 43.3691 65.3005 43.3703 65.2939 43.3703L65.2745 43.3746C65.0432 43.4048 64.9291 43.4682 64.9291 43.5606C64.9291 43.6071 64.9466 43.6397 64.981 43.6596C65.0166 43.6795 65.0752 43.6904 65.158 43.6904C65.2238 43.6904 65.3126 43.6868 65.4201 43.6814C65.5258 43.6771 65.5976 43.6735 65.6357 43.6735C66.079 43.6735 66.4377 43.7635 66.7113 43.9405C66.9849 44.1174 67.1208 44.3445 67.1208 44.6211C67.1208 44.9738 66.9438 45.2643 66.5899 45.4896C66.236 45.7155 65.7782 45.8278 65.2147 45.8278C64.7038 45.8278 64.2816 45.739 63.9489 45.5578C63.6173 45.3778 63.45 45.2407 63.45 44.975C63.45 44.8228 63.5098 44.609 63.6282 44.5076C63.7459 44.4067 63.8945 44.356 64.0739 44.356C64.1162 44.356 64.1633 44.3602 64.2176 44.3723C64.272 44.385 64.336 44.4031 64.4091 44.4278C64.3191 44.4405 64.2496 44.4756 64.2025 44.5329C64.1554 44.5897 64.1319 44.6682 64.1319 44.7673C64.1319 44.9545 64.246 45.1175 64.4749 45.2546C64.705 45.3923 64.9858 45.46 65.3186 45.46C65.6496 45.46 65.9292 45.3851 66.1521 45.2341C66.3761 45.0837 66.4873 44.9013 66.4873 44.6881C66.4873 44.4834 66.3906 44.3276 66.1986 44.2195C66.0071 44.112 65.7287 44.0582 65.3633 44.0582C65.3337 44.0582 65.2486 44.06 65.1097 44.0643C64.9701 44.0685 64.8451 44.0709 64.7358 44.0709C64.5667 44.0709 64.4375 44.0407 64.3463 43.9809C64.2569 43.9199 64.211 43.8342 64.211 43.7224C64.211 43.6173 64.2545 43.5267 64.3426 43.4519C64.4302 43.3764 64.5589 43.3202 64.7298 43.2815C64.4405 43.2205 64.211 43.0949 64.0419 42.9041C63.8734 42.7144 63.7882 42.4916 63.7882 42.2361C63.7882 41.8907 63.9265 41.6153 64.2013 41.4111C64.4761 41.2076 64.8524 41.1049 65.3313 41.1049C65.4515 41.1049 65.626 41.111 65.8561 41.1218C66.085 41.1351 66.2535 41.1393 66.3647 41.1393C66.4577 41.1393 66.5652 41.1351 66.6902 41.1218C66.8152 41.111 66.9638 41.0922 67.1335 41.0669ZM65.9685 42.2868C65.9685 42.0676 65.8894 41.8834 65.7323 41.7354C65.5753 41.5875 65.3796 41.5138 65.1447 41.5138C64.9255 41.5138 64.7497 41.5742 64.6186 41.6956C64.4882 41.8176 64.4218 41.9782 64.4218 42.1751C64.4218 42.4004 64.5021 42.587 64.6639 42.7398C64.824 42.8926 65.0197 42.9681 65.2522 42.9681C65.4599 42.9681 65.6297 42.9035 65.7655 42.7748C65.8996 42.6462 65.9685 42.4837 65.9685 42.2868ZM59.9205 42.7869C59.9205 42.555 59.9652 42.3364 60.0528 42.1334C60.1398 41.9287 60.2672 41.7463 60.4381 41.5863C60.5988 41.4347 60.7908 41.3157 61.0083 41.2317C61.2251 41.1472 61.4515 41.1049 61.6865 41.1049C61.9293 41.1049 62.1485 41.1442 62.3448 41.2221C62.5417 41.3006 62.7186 41.4196 62.8769 41.5796C63.0321 41.7367 63.1529 41.913 63.235 42.1069C63.3177 42.3026 63.3576 42.5073 63.3576 42.7205C63.3576 42.9554 63.3141 43.1753 63.2284 43.3782C63.142 43.5817 63.0146 43.7635 62.8449 43.9217C62.6854 44.0709 62.4958 44.1875 62.2783 44.2708C62.0615 44.3548 61.8351 44.3964 61.6001 44.3964C61.3525 44.3964 61.1321 44.359 60.9388 44.2835C60.7437 44.2068 60.5668 44.0884 60.4055 43.9278C60.2497 43.7713 60.1295 43.5938 60.0468 43.3975C59.9628 43.1994 59.9205 42.9965 59.9205 42.7869ZM60.6024 42.6577C60.6024 43.0418 60.7014 43.3528 60.8983 43.5902C61.0964 43.8275 61.3525 43.9465 61.6702 43.9465C61.9685 43.9465 62.2113 43.8402 62.4003 43.6288C62.5888 43.4162 62.683 43.1426 62.683 42.8062C62.683 42.4451 62.5827 42.1479 62.3798 41.913C62.1793 41.6787 61.9232 41.5621 61.6134 41.5621C61.3217 41.5621 61.0801 41.666 60.8893 41.8737C60.6978 42.0821 60.6024 42.343 60.6024 42.6577ZM59.2731 43.7152C59.2731 43.8505 59.2894 43.9628 59.325 44.054C59.3589 44.1452 59.4156 44.2237 59.4911 44.2913H58.4614C58.5393 44.2237 58.5961 44.144 58.6287 44.054C58.6631 43.9628 58.6794 43.8505 58.6794 43.7152V40.4231C58.6794 40.2878 58.6631 40.1748 58.6287 40.0849C58.5961 39.9937 58.5393 39.9145 58.4614 39.8463H58.5309C58.5985 39.8463 58.6818 39.8421 58.7785 39.8318C58.8775 39.8227 59.0418 39.8022 59.2731 39.7714V43.7152ZM54.5678 42.7869C54.5678 42.555 54.6124 42.3364 54.7 42.1334C54.787 41.9287 54.9144 41.7463 55.0853 41.5863C55.246 41.4347 55.4368 41.3157 55.6543 41.2317C55.8723 41.1472 56.0976 41.1049 56.3325 41.1049C56.5753 41.1049 56.7945 41.1442 56.9902 41.2221C57.1877 41.3006 57.3646 41.4196 57.5235 41.5796C57.6793 41.7367 57.7995 41.913 57.881 42.1069C57.9638 42.3038 58.0048 42.5073 58.0048 42.7205C58.0048 42.9554 57.9613 43.1746 57.875 43.3782C57.7892 43.5817 57.6618 43.7635 57.4921 43.9217C57.3314 44.0709 57.1412 44.1875 56.9256 44.2708C56.7075 44.3548 56.4823 44.3964 56.2461 44.3964C55.9997 44.3964 55.7793 44.359 55.5854 44.2835C55.3909 44.2068 55.2128 44.0878 55.0521 43.9278C54.8969 43.7713 54.7761 43.5938 54.694 43.3975C54.61 43.1994 54.5678 42.9965 54.5678 42.7869ZM55.2496 42.6577C55.2496 43.0418 55.3487 43.3528 55.5455 43.5902C55.7436 43.8275 55.9997 43.9465 56.3156 43.9465C56.6139 43.9465 56.8585 43.8402 57.047 43.6288C57.2372 43.4162 57.3302 43.1426 57.3302 42.8062C57.3302 42.4451 57.2287 42.1479 57.027 41.913C56.8253 41.6787 56.5704 41.5621 56.26 41.5621C55.9677 41.5621 55.7273 41.666 55.5359 41.8737C55.345 42.0821 55.2496 42.343 55.2496 42.6577ZM51.7836 43.7152C51.7836 43.8505 51.8011 43.9628 51.8367 44.054C51.8705 44.1452 51.9273 44.2249 52.0028 44.2913H50.967C51.0449 44.2249 51.1005 44.144 51.1349 44.054C51.1675 43.9628 51.1857 43.8505 51.1857 43.7152V41.7958C51.1857 41.6587 51.1687 41.5422 51.1337 41.4498C51.0981 41.3574 51.0425 41.277 50.967 41.2088H51.0359C51.1398 41.2088 51.2491 41.2034 51.365 41.1913C51.4792 41.1798 51.6054 41.1629 51.7437 41.1393L51.7715 41.631C51.9297 41.4619 52.0892 41.3374 52.2504 41.2589C52.4099 41.1804 52.5808 41.1393 52.7626 41.1393C53.105 41.1393 53.3834 41.2432 53.5978 41.4522C53.8116 41.66 53.9191 41.9329 53.9191 42.2675V43.7152C53.9191 43.8505 53.9366 43.9628 53.9698 44.054C54.0037 44.144 54.0592 44.2249 54.1371 44.2913H53.0905C53.1696 44.2249 53.2264 44.1452 53.262 44.054C53.2958 43.9628 53.314 43.8505 53.314 43.7152V42.613C53.314 42.2766 53.2536 42.0326 53.131 41.8792C53.0108 41.7258 52.8169 41.6503 52.5536 41.6503C52.28 41.6503 52.0819 41.7197 51.9629 41.8605C51.844 42.0012 51.7836 42.2361 51.7836 42.5665V43.7152ZM49.5248 41.2088C49.5562 41.2535 49.5798 41.2946 49.5955 41.3326C49.6093 41.3701 49.6166 41.4063 49.6166 41.4371C49.6166 41.4818 49.5979 41.5386 49.561 41.6074C49.5248 41.6781 49.4753 41.7505 49.41 41.826L48.7554 42.5713L49.7144 43.9139C49.8219 44.0637 49.9162 44.1615 49.9941 44.2134C50.0708 44.2654 50.1601 44.2913 50.2592 44.2913H50.8837C50.848 44.2563 50.7985 44.2062 50.7339 44.1422C50.5533 43.9622 50.4494 43.8547 50.4211 43.816L49.41 42.5145L50.4754 41.2088H49.5248ZM47.8023 44.2913C47.879 44.2237 47.9358 44.144 47.9696 44.054C48.0028 43.9628 48.0204 43.8505 48.0204 43.7152V40.4231C48.0204 40.2878 48.0028 40.1748 47.9696 40.0849C47.9358 39.9937 47.879 39.9145 47.8023 39.8463H47.8591C47.9473 39.8463 48.05 39.8415 48.1647 39.8294C48.2801 39.8173 48.431 39.798 48.6201 39.7714V43.7152C48.6201 43.8505 48.6364 43.9628 48.6708 44.054C48.7071 44.1452 48.7626 44.2237 48.8381 44.2913H47.8023ZM44.9408 42.6758H47.3198C47.3131 42.1836 47.1821 41.794 46.9236 41.509C46.6663 41.2215 46.3184 41.0796 45.8818 41.0796C45.4053 41.0796 45.0163 41.236 44.7107 41.5494C44.4051 41.8629 44.2529 42.2651 44.2529 42.7543C44.2529 43.2332 44.4196 43.6264 44.7506 43.9368C45.0822 44.2473 45.5043 44.4031 46.0177 44.4031C46.1572 44.4031 46.3058 44.3856 46.4646 44.3523C46.6216 44.3185 46.7937 44.2678 46.9767 44.1995L47.3198 43.6047C47.1066 43.7164 46.9085 43.7985 46.7267 43.8529C46.5437 43.9066 46.3692 43.9338 46.2055 43.9338C45.8347 43.9338 45.5351 43.8203 45.3062 43.5932C45.0773 43.3655 44.9559 43.0599 44.9408 42.6758ZM44.9855 42.2422H46.6325C46.6192 42.0247 46.5377 41.8466 46.3903 41.7083C46.2429 41.57 46.0599 41.5005 45.8407 41.5005C45.604 41.5005 45.4089 41.5669 45.2579 41.6986C45.1057 41.8315 45.0151 42.0127 44.9855 42.2422ZM43.4189 43.5117C43.4189 43.7333 43.44 43.8988 43.4805 44.0051C43.5204 44.1102 43.5868 44.208 43.6798 44.2913H42.4719C42.5673 44.208 42.6344 44.1102 42.6736 44.0051C42.7123 43.8988 42.7328 43.7333 42.7328 43.5117V40.3729H42.3777C42.1319 40.3729 41.9338 40.3929 41.7816 40.4309C41.6294 40.4678 41.508 40.5306 41.4174 40.6139L41.6354 39.8916H44.7826L44.5748 40.6018C44.5102 40.5233 44.4239 40.4647 44.3182 40.4285C44.2107 40.3917 44.076 40.3729 43.9135 40.3729H43.4189V43.5117ZM60.0951 35.5679H59.6729V35.3402C59.9278 35.3173 60.1271 35.2001 60.272 34.99C60.4146 34.7798 60.4925 34.4947 60.5046 34.1336H60.6906V35.118H61.6074V35.6948C61.5554 35.6507 61.4944 35.6181 61.422 35.5981C61.3477 35.5782 61.2535 35.5679 61.1345 35.5679H60.6906V37.0663C60.6906 37.3411 60.7371 37.5422 60.8289 37.6703C60.9195 37.8001 61.0626 37.8647 61.2559 37.8647C61.2994 37.8623 61.3465 37.8581 61.3948 37.8502C61.4437 37.843 61.492 37.8333 61.5403 37.8201L61.2287 38.273H61.2148C61.1284 38.2821 61.068 38.2863 61.0306 38.2863C60.719 38.2863 60.4858 38.2078 60.33 38.0514C60.1742 37.8949 60.0951 37.6648 60.0951 37.358V35.5679ZM58.5441 37.7862C58.3847 37.9541 58.2253 38.0791 58.064 38.1601C57.9046 38.2398 57.7336 38.2797 57.5519 38.2797C57.2124 38.2797 56.9352 38.174 56.719 37.9644C56.5046 37.7542 56.3959 37.4806 56.3959 37.1418V35.7044C56.3959 35.5673 56.3796 35.452 56.344 35.3584C56.3089 35.2666 56.2534 35.185 56.1779 35.118H56.2661C56.3887 35.118 56.5119 35.1126 56.6345 35.1011C56.7559 35.0896 56.8785 35.0715 56.9986 35.0491L57.0023 36.806C57.0023 37.14 57.0627 37.384 57.1828 37.5374C57.3018 37.6896 57.4951 37.7663 57.7584 37.7663C58.0344 37.7663 58.2325 37.6956 58.3515 37.5537C58.4711 37.4136 58.5309 37.1756 58.5309 36.8453V35.7044C58.5309 35.5673 58.5133 35.452 58.4777 35.3584C58.4439 35.2666 58.3871 35.185 58.3092 35.118H58.3883C58.5001 35.118 58.6172 35.1126 58.7386 35.1011C58.8588 35.0896 58.9899 35.0715 59.13 35.0491V37.5447C59.13 37.6799 59.1469 37.7929 59.1795 37.8841C59.2139 37.9747 59.2707 38.0538 59.3486 38.122H59.2906C59.1976 38.122 59.0962 38.1281 58.9838 38.1401C58.8721 38.1522 58.7362 38.174 58.5749 38.2005L58.5441 37.7862ZM54.2362 35.5679H53.814V35.3402C54.0689 35.3173 54.267 35.2001 54.4119 34.99C54.5557 34.7798 54.6336 34.4947 54.6445 34.1336H54.8317V35.118H55.7473V35.6948C55.6965 35.6507 55.6349 35.6181 55.5631 35.5981C55.4888 35.5782 55.3934 35.5679 55.2756 35.5679H54.8317V37.0663C54.8317 37.3411 54.8764 37.5422 54.9688 37.6703C55.0606 37.8001 55.2031 37.8647 55.3958 37.8647C55.4405 37.8623 55.4864 37.8581 55.5359 37.8502C55.5842 37.843 55.6325 37.8333 55.6814 37.8201L55.3698 38.273H55.3553C55.2695 38.2821 55.2091 38.2863 55.1717 38.2863C54.8601 38.2863 54.6263 38.2078 54.4711 38.0514C54.3141 37.8949 54.2362 37.6648 54.2362 37.358V35.5679ZM53.2361 37.6244C53.2361 37.7603 53.2524 37.8726 53.288 37.9632C53.323 38.0538 53.3786 38.1329 53.4577 38.2005H52.4249C52.5017 38.1329 52.5596 38.0538 52.5941 37.9632C52.6291 37.872 52.646 37.7603 52.646 37.6244V35.7044C52.646 35.5673 52.6267 35.452 52.5916 35.3584C52.556 35.2666 52.4992 35.1862 52.4249 35.118C52.6055 35.1138 52.7626 35.1053 52.8936 35.0944C53.0247 35.083 53.1394 35.0679 53.2361 35.0491V37.6244ZM52.5222 34.2942C52.5222 34.1873 52.5608 34.0949 52.6363 34.02C52.713 33.9433 52.8048 33.9053 52.9123 33.9053C53.0186 33.9053 53.1074 33.9439 53.1817 34.02C53.256 34.0955 53.2922 34.1873 53.2922 34.2942C53.2922 34.4041 53.256 34.4971 53.1841 34.572C53.1122 34.6463 53.0198 34.685 52.9123 34.685C52.8024 34.685 52.7094 34.6463 52.6351 34.5702C52.5608 34.4947 52.5222 34.4017 52.5222 34.2942ZM50.4446 35.5679H50.0224V35.3402C50.2773 35.3173 50.4766 35.2001 50.6204 34.99C50.7641 34.7798 50.842 34.4947 50.8541 34.1336H51.0401V35.118H51.9569V35.6948C51.905 35.6507 51.844 35.6181 51.7715 35.5981C51.6972 35.5782 51.603 35.5679 51.484 35.5679H51.0401V37.0663C51.0401 37.3411 51.0866 37.5422 51.1772 37.6703C51.269 37.8001 51.4121 37.8647 51.6054 37.8647C51.6489 37.8623 51.696 37.8581 51.7443 37.8502C51.7932 37.843 51.8415 37.8333 51.8899 37.8201L51.5794 38.273H51.5643C51.478 38.2821 51.4176 38.2863 51.3801 38.2863C51.0685 38.2863 50.8366 38.2078 50.6795 38.0514C50.5225 37.8949 50.4446 37.6648 50.4446 37.358V35.5679ZM47.3131 38.1371L47.0595 37.4341C47.2974 37.5942 47.5191 37.7144 47.7208 37.7923C47.9237 37.8696 48.1164 37.9094 48.2988 37.9094C48.5241 37.9094 48.7046 37.8647 48.8405 37.7772C48.977 37.6896 49.0459 37.5736 49.0459 37.4275C49.0459 37.2457 48.8146 37.0621 48.3507 36.8797C48.2402 36.8356 48.1526 36.8 48.0916 36.7728C47.8186 36.6587 47.6206 36.5312 47.4967 36.3917C47.3729 36.2534 47.3131 36.0879 47.3131 35.8971C47.3131 35.6259 47.4212 35.4091 47.6363 35.2497C47.8507 35.0884 48.1454 35.0081 48.5198 35.0081C48.64 35.0081 48.7723 35.0165 48.916 35.0353C49.0585 35.0534 49.2095 35.0781 49.369 35.1132V35.664C49.2071 35.5842 49.0513 35.5226 48.8997 35.4798C48.7475 35.4387 48.6008 35.4163 48.4594 35.4163C48.2988 35.4163 48.1707 35.452 48.0759 35.5196C47.9805 35.5879 47.9322 35.6791 47.9322 35.7944C47.9322 35.9557 48.1255 36.1085 48.5102 36.2468C48.6738 36.306 48.8049 36.3573 48.9027 36.3984C49.1769 36.5155 49.3786 36.643 49.5067 36.7825C49.6353 36.9214 49.7005 37.0832 49.7005 37.2656C49.7005 37.5839 49.5647 37.8382 49.2923 38.0302C49.0211 38.2217 48.6527 38.3177 48.1931 38.3177C48.0252 38.3177 47.8706 38.3026 47.7281 38.273C47.5843 38.2446 47.446 38.1987 47.3131 38.1371ZM44.3484 37.6244C44.3484 37.7603 44.3653 37.8726 44.4003 37.9632C44.4359 38.0538 44.4915 38.1335 44.567 38.2005H43.5312C43.6091 38.1335 43.6659 38.0538 43.6985 37.9632C43.7329 37.872 43.7492 37.7603 43.7492 37.6244V35.705C43.7492 35.5679 43.7329 35.452 43.6973 35.3584C43.6635 35.2666 43.6067 35.1862 43.5312 35.118H43.6007C43.7046 35.118 43.8133 35.1126 43.9286 35.1011C44.0434 35.0896 44.1702 35.0715 44.3073 35.0491L44.3357 35.5395C44.4951 35.3717 44.654 35.2478 44.8146 35.1681C44.9747 35.0896 45.1462 35.0491 45.3274 35.0491C45.6686 35.0491 45.9482 35.1536 46.1614 35.3614C46.3752 35.5697 46.4827 35.8415 46.4827 36.1773V37.6244C46.4827 37.7603 46.5002 37.872 46.5347 37.9632C46.5673 38.0538 46.624 38.1335 46.7007 38.2005H45.6553C45.7332 38.1335 45.79 38.0538 45.8256 37.9632C45.8607 37.872 45.8776 37.7603 45.8776 37.6244V36.5216C45.8776 36.1864 45.8172 35.9412 45.6958 35.7884C45.5744 35.6362 45.3817 35.5601 45.1178 35.5601C44.8442 35.5601 44.6473 35.6289 44.5265 35.7709C44.4076 35.9104 44.3484 36.1459 44.3484 36.4757V37.6244ZM42.6628 37.4214C42.6628 37.6431 42.6833 37.8074 42.7207 37.9149C42.76 38.0212 42.827 38.1172 42.9212 38.2005H41.7158C41.8112 38.1172 41.8776 38.0212 41.9163 37.9149C41.9549 37.8074 41.9755 37.6431 41.9755 37.4214V34.5744C41.9755 34.3528 41.9549 34.1885 41.9163 34.0828C41.8776 33.9777 41.8112 33.8835 41.7158 33.8008H42.9212C42.827 33.8835 42.76 33.9777 42.7207 34.0828C42.6833 34.1885 42.6628 34.3528 42.6628 34.5744V37.4214Z" fill="white"></path><path fill-rule="evenodd" clip-rule="evenodd" d="M59.4205 24.5779C60.5184 24.8871 62.7905 25.2815 63.7151 26.5516C64.766 27.9968 64.4465 30.1584 63.0665 31.2582C62.0193 32.094 60.9044 32.3809 59.2659 32.3978C57.6286 32.4153 56.4889 32.0348 55.6881 31.847L55.0781 29.436C56.5094 29.9168 58.241 30.2459 59.6174 30.2314C60.9938 30.2176 61.6484 29.796 61.8242 28.9903C62.1715 27.4044 59.4368 27.103 58.5001 26.8675C56.4889 26.3614 54.9555 25.543 55.2249 23.2486C55.2538 22.9974 55.3106 22.7485 55.3946 22.5118H51.3403L51.3366 31.0419C51.3354 31.7564 51.5631 32.1188 52.0251 32.2396H48.0693C48.5313 32.1188 48.759 31.757 48.759 31.0419V22.5118H41.8951L44.4818 20.1298L64.3372 20.1316L62.195 22.5172L59.0442 22.5196C58.0616 22.5196 57.6914 22.9182 57.6902 23.4938C57.689 24.0688 58.2893 24.259 59.4205 24.5779ZM44.4818 20.1298H41.2036C41.6662 20.2512 41.8927 20.6118 41.8927 21.3281V31.0299C41.8927 31.7449 41.6662 32.1067 41.2036 32.2281H45.1709C44.7083 32.1067 44.4818 31.7449 44.4818 31.0299V20.1298Z" fill="white"></path></g><defs><clipPath id="clip0_4959_251"><rect width="98" height="55.5508" fill="white"></rect></clipPath></defs></svg>